<?xml version="1.0" encoding="utf-8"?>
<!-- Generator: Adobe Illustrator 16.0.0, SVG Export Plug-In . SVG Version: 6.00 Build 0)  -->
<!DOCTYPE svg PUBLIC "-//W3C//DTD SVG 1.1 Tiny//EN" "http://www.w3.org/Graphics/SVG/1.1/DTD/svg11-tiny.dtd" [
	<!ENTITY ns_flows "http://ns.adobe.com/Flows/1.0/">
	<!ENTITY ns_extend "http://ns.adobe.com/Extensibility/1.0/">
	<!ENTITY ns_ai "http://ns.adobe.com/AdobeIllustrator/10.0/">
	<!ENTITY ns_graphs "http://ns.adobe.com/Graphs/1.0/">
]>
<svg version="1.1" baseProfile="tiny" id="图层_1" xmlns:x="&ns_extend;" xmlns:i="&ns_ai;" xmlns:graph="&ns_graphs;"
	 xmlns="http://www.w3.org/2000/svg" xmlns:xlink="http://www.w3.org/1999/xlink" xmlns:a="http://ns.adobe.com/AdobeSVGViewerExtensions/3.0/"
	 x="0px" y="0px" width="180px" height="70px" viewBox="0 0 180 70" xml:space="preserve">
<path fill-rule="evenodd" fill="#306AB3" d="M24.688,19.734l-1.167,4.671l-8.78,2.31c0,0-1.662,0.458-3.126,0.62
	c-1.465,0.163-2.292,1.642-2.282,3.526c0.01,1.883,0,12.195,0,12.195s0.614,1.305,0.814,1.483c0.201,0.178,0.792,0.745,3.425,1.111
	c2.631,0.364,4.927,1.18,4.927,1.18l2.038,0.503l2.984,0.934l1.335,4.662H10.009c0,0-8.042-0.692-8.131-7.166
	c-0.09-6.473-0.103-18.399-0.103-18.399S2.771,20,10.632,19.785C18.494,19.569,24.688,19.734,24.688,19.734z"/>
<path fill-rule="evenodd" fill="#306AB3" d="M32.117,52.869l1.167-4.672l8.78-2.309c0,0,1.661-0.46,3.127-0.623
	c1.465-0.161,2.292-1.641,2.283-3.523c-0.01-1.884,0-12.196,0-12.196s-0.615-1.304-0.815-1.482
	c-0.201-0.178-0.793-0.747-3.424-1.112c-2.631-0.364-4.928-1.178-4.928-1.178l-2.038-0.506l-2.984-0.932l-1.335-4.663h14.846
	c0,0,8.042,0.692,8.133,7.166c0.087,6.474,0.103,18.4,0.103,18.4s-0.997,7.363-8.858,7.578
	C38.313,53.033,32.117,52.869,32.117,52.869z"/>
<rect x="19.426" y="34.745" fill-rule="evenodd" fill="#306AB3" width="18.074" height="3.111"/>
<g>
	<path fill="#306AB3" d="M61.772,34.745l5.344-12.779h1.028l5.344,12.779h-1.354l-1.652-4.008h-5.739L63.1,34.745H61.772z
		 M65.007,29.762h5.186l-2.558-6.319L65.007,29.762z"/>
	<path fill="#306AB3" d="M75.053,33.031V21.605h1.222v11.013c0,0.346,0.095,0.618,0.286,0.817c0.189,0.199,0.461,0.299,0.813,0.299
		c0.135,0,0.291-0.018,0.471-0.053c0.178-0.035,0.344-0.082,0.496-0.141l0.22,0.984c-0.229,0.094-0.509,0.171-0.839,0.233
		c-0.332,0.062-0.617,0.092-0.857,0.092c-0.563,0-1.005-0.158-1.327-0.475S75.053,33.611,75.053,33.031z"/>
	<path fill="#306AB3" d="M79.746,23.407v-1.802h1.222v1.802H79.746z M79.746,34.745v-9.378h1.222v9.378H79.746z"/>
	<path fill="#306AB3" d="M83.596,34.745v-13.14h1.222v5.722c0.422-0.639,0.926-1.151,1.512-1.538s1.274-0.58,2.065-0.58
		c0.649,0,1.236,0.138,1.763,0.413s0.973,0.643,1.338,1.103s0.647,0.981,0.847,1.564c0.198,0.583,0.298,1.182,0.298,1.797
		c0,0.662-0.114,1.286-0.342,1.872c-0.229,0.586-0.543,1.097-0.943,1.534s-0.874,0.784-1.421,1.042s-1.13,0.387-1.75,0.387
		c-0.734,0-1.414-0.185-2.04-0.554c-0.625-0.369-1.114-0.85-1.467-1.441v1.819H83.596z M84.817,31.537
		c0.047,0.322,0.176,0.625,0.387,0.91s0.466,0.529,0.765,0.734s0.616,0.368,0.953,0.488s0.661,0.18,0.972,0.18
		c0.516,0,0.985-0.105,1.411-0.316c0.424-0.211,0.791-0.494,1.098-0.848c0.309-0.354,0.548-0.757,0.721-1.208s0.26-0.914,0.26-1.389
		c0-0.492-0.081-0.967-0.242-1.424s-0.388-0.863-0.681-1.217s-0.645-0.637-1.055-0.848s-0.861-0.316-1.354-0.316
		c-0.369,0-0.716,0.063-1.042,0.189c-0.324,0.126-0.625,0.297-0.9,0.514s-0.524,0.466-0.747,0.747s-0.404,0.58-0.545,0.896V31.537z"
		/>
	<path fill="#306AB3" d="M93.94,32.069c0-0.434,0.095-0.829,0.285-1.184s0.46-0.659,0.809-0.911s0.767-0.448,1.253-0.585
		c0.486-0.138,1.022-0.207,1.608-0.207c0.469,0,0.949,0.042,1.441,0.127s0.929,0.204,1.31,0.356v-0.844
		c0-0.826-0.236-1.482-0.708-1.969s-1.111-0.729-1.92-0.729c-0.504,0-1.005,0.097-1.503,0.29s-1.005,0.469-1.521,0.826l-0.431-0.809
		c0.609-0.41,1.202-0.716,1.78-0.918c0.576-0.202,1.179-0.303,1.806-0.303c1.14,0,2.044,0.33,2.714,0.989
		c0.669,0.659,1.004,1.569,1.004,2.729v4.244c0,0.335,0.146,0.502,0.439,0.502v1.072c-0.096,0.012-0.187,0.021-0.272,0.026
		c-0.087,0.006-0.16,0.009-0.22,0.009c-0.238,0-0.456-0.071-0.653-0.214s-0.308-0.357-0.331-0.643l-0.035-0.734
		c-0.41,0.548-0.948,0.974-1.613,1.277s-1.34,0.455-2.025,0.455c-0.48,0-0.918-0.075-1.314-0.224
		c-0.395-0.149-0.733-0.355-1.015-0.619s-0.5-0.569-0.655-0.917C94.018,32.814,93.94,32.45,93.94,32.069z M95.127,31.964
		c0,0.253,0.047,0.5,0.141,0.738c0.094,0.239,0.24,0.456,0.439,0.65c0.199,0.194,0.442,0.352,0.729,0.473
		c0.287,0.121,0.63,0.181,1.028,0.181c0.539,0,1.075-0.118,1.608-0.353s0.958-0.56,1.274-0.972c0.082-0.106,0.152-0.222,0.211-0.349
		c0.059-0.126,0.088-0.243,0.088-0.349v-1.537c-0.41-0.158-0.837-0.28-1.278-0.365c-0.443-0.085-0.872-0.128-1.288-0.128
		c-0.879,0-1.591,0.178-2.136,0.533S95.127,31.335,95.127,31.964z"/>
	<path fill="#306AB3" d="M104.54,34.745v-13.14h1.222v5.722c0.422-0.639,0.926-1.151,1.512-1.538s1.274-0.58,2.065-0.58
		c0.649,0,1.236,0.138,1.763,0.413s0.973,0.643,1.338,1.103s0.647,0.981,0.847,1.564c0.198,0.583,0.298,1.182,0.298,1.797
		c0,0.662-0.114,1.286-0.342,1.872c-0.229,0.586-0.543,1.097-0.943,1.534s-0.874,0.784-1.421,1.042s-1.13,0.387-1.75,0.387
		c-0.734,0-1.414-0.185-2.04-0.554c-0.625-0.369-1.114-0.85-1.467-1.441v1.819H104.54z M105.762,31.537
		c0.047,0.322,0.176,0.625,0.387,0.91s0.466,0.529,0.765,0.734s0.616,0.368,0.953,0.488s0.661,0.18,0.972,0.18
		c0.516,0,0.985-0.105,1.411-0.316c0.424-0.211,0.791-0.494,1.098-0.848c0.309-0.354,0.548-0.757,0.721-1.208s0.26-0.914,0.26-1.389
		c0-0.492-0.081-0.967-0.242-1.424s-0.388-0.863-0.681-1.217s-0.645-0.637-1.055-0.848s-0.861-0.316-1.354-0.316
		c-0.369,0-0.716,0.063-1.042,0.189c-0.324,0.126-0.625,0.297-0.9,0.514s-0.524,0.466-0.747,0.747s-0.404,0.58-0.545,0.896V31.537z"
		/>
	<path fill="#306AB3" d="M114.885,32.069c0-0.434,0.095-0.829,0.285-1.184s0.46-0.659,0.809-0.911s0.767-0.448,1.253-0.585
		c0.486-0.138,1.022-0.207,1.608-0.207c0.469,0,0.949,0.042,1.441,0.127s0.929,0.204,1.31,0.356v-0.844
		c0-0.826-0.236-1.482-0.708-1.969s-1.111-0.729-1.92-0.729c-0.504,0-1.005,0.097-1.503,0.29s-1.005,0.469-1.521,0.826l-0.431-0.809
		c0.609-0.41,1.202-0.716,1.78-0.918c0.576-0.202,1.179-0.303,1.806-0.303c1.14,0,2.044,0.33,2.714,0.989
		c0.669,0.659,1.004,1.569,1.004,2.729v4.244c0,0.335,0.146,0.502,0.439,0.502v1.072c-0.096,0.012-0.187,0.021-0.272,0.026
		c-0.087,0.006-0.16,0.009-0.22,0.009c-0.238,0-0.456-0.071-0.653-0.214s-0.308-0.357-0.331-0.643l-0.035-0.734
		c-0.41,0.548-0.948,0.974-1.613,1.277s-1.34,0.455-2.025,0.455c-0.48,0-0.918-0.075-1.314-0.224
		c-0.395-0.149-0.733-0.355-1.015-0.619s-0.5-0.569-0.655-0.917C114.962,32.814,114.885,32.45,114.885,32.069z M116.071,31.964
		c0,0.253,0.047,0.5,0.141,0.738c0.094,0.239,0.24,0.456,0.439,0.65c0.199,0.194,0.442,0.352,0.729,0.473
		c0.287,0.121,0.63,0.181,1.028,0.181c0.539,0,1.075-0.118,1.608-0.353s0.958-0.56,1.274-0.972c0.082-0.106,0.152-0.222,0.211-0.349
		c0.059-0.126,0.088-0.243,0.088-0.349v-1.537c-0.41-0.158-0.837-0.28-1.278-0.365c-0.443-0.085-0.872-0.128-1.288-0.128
		c-0.879,0-1.591,0.178-2.136,0.533S116.071,31.335,116.071,31.964z"/>
	<path fill="#306AB3" d="M129.563,28.274c0-0.769,0.135-1.534,0.404-2.296c0.27-0.762,0.662-1.444,1.178-2.045
		c0.516-0.601,1.151-1.091,1.907-1.469c0.756-0.378,1.614-0.567,2.575-0.567c1.143,0,2.115,0.257,2.918,0.772
		c0.803,0.515,1.403,1.185,1.802,2.009l-1.011,0.62c-0.205-0.425-0.451-0.782-0.738-1.072c-0.287-0.289-0.6-0.525-0.936-0.708
		c-0.338-0.183-0.686-0.313-1.047-0.39c-0.359-0.077-0.713-0.115-1.059-0.115c-0.768,0-1.445,0.156-2.035,0.468
		c-0.588,0.313-1.084,0.721-1.484,1.228c-0.402,0.506-0.705,1.075-0.91,1.708s-0.308,1.276-0.308,1.929
		c0,0.71,0.123,1.39,0.369,2.039s0.583,1.223,1.011,1.722s0.933,0.896,1.516,1.189c0.583,0.294,1.215,0.44,1.895,0.44
		c0.357,0,0.727-0.044,1.107-0.132c0.381-0.088,0.748-0.231,1.104-0.431c0.354-0.2,0.681-0.446,0.979-0.74
		c0.299-0.294,0.551-0.652,0.756-1.075l1.046,0.537c-0.205,0.479-0.494,0.9-0.865,1.264c-0.373,0.365-0.787,0.672-1.244,0.923
		c-0.457,0.251-0.94,0.442-1.45,0.573s-1.011,0.197-1.503,0.197c-0.879,0-1.684-0.192-2.412-0.575
		c-0.73-0.383-1.36-0.884-1.891-1.501s-0.941-1.318-1.234-2.103C129.709,29.887,129.563,29.087,129.563,28.274z"/>
	<path fill="#306AB3" d="M142.544,33.031V21.605h1.222v11.013c0,0.346,0.095,0.618,0.286,0.817c0.189,0.199,0.461,0.299,0.813,0.299
		c0.135,0,0.291-0.018,0.471-0.053c0.178-0.035,0.344-0.082,0.496-0.141l0.22,0.984c-0.229,0.094-0.509,0.171-0.839,0.233
		c-0.332,0.062-0.617,0.092-0.857,0.092c-0.563,0-1.005-0.158-1.327-0.475S142.544,33.611,142.544,33.031z"/>
	<path fill="#306AB3" d="M146.604,30.087c0-0.662,0.117-1.288,0.352-1.876s0.559-1.104,0.971-1.547
		c0.414-0.442,0.906-0.795,1.477-1.059c0.572-0.264,1.191-0.396,1.859-0.396c0.673,0,1.294,0.132,1.864,0.396
		s1.062,0.617,1.474,1.059s0.735,0.958,0.97,1.547c0.233,0.589,0.351,1.214,0.351,1.876c0,0.65-0.117,1.269-0.351,1.854
		c-0.234,0.586-0.558,1.1-0.97,1.542s-0.903,0.792-1.474,1.05s-1.191,0.387-1.864,0.387c-0.686,0-1.313-0.129-1.881-0.387
		s-1.059-0.608-1.473-1.05c-0.412-0.442-0.733-0.958-0.962-1.547S146.604,30.731,146.604,30.087z M147.861,30.104
		c0,0.527,0.088,1.015,0.264,1.463s0.416,0.844,0.721,1.187s0.663,0.611,1.077,0.804c0.412,0.193,0.854,0.29,1.322,0.29
		s0.91-0.1,1.322-0.299c0.414-0.199,0.776-0.47,1.09-0.813s0.56-0.741,0.738-1.195s0.269-0.945,0.269-1.472
		c0-0.516-0.09-1.005-0.269-1.468s-0.425-0.866-0.738-1.208s-0.674-0.614-1.08-0.813c-0.408-0.199-0.846-0.299-1.314-0.299
		s-0.91,0.1-1.322,0.299c-0.414,0.199-0.772,0.473-1.077,0.822s-0.548,0.754-0.729,1.217S147.861,29.577,147.861,30.104z"/>
	<path fill="#306AB3" d="M157.828,30.878v-5.511h1.222v5.291c0,2.121,0.725,3.185,2.175,3.19c0.357,0,0.713-0.06,1.064-0.18
		c0.353-0.12,0.675-0.293,0.969-0.521c0.293-0.228,0.558-0.499,0.792-0.811c0.234-0.313,0.423-0.665,0.563-1.057v-5.913h1.222v7.804
		c0,0.334,0.152,0.501,0.457,0.501v1.072c-0.245,0.035-0.418,0.053-0.52,0.053c-0.272,0-0.506-0.083-0.7-0.25
		c-0.195-0.167-0.292-0.375-0.292-0.626l-0.026-1.296c-0.42,0.73-0.977,1.295-1.67,1.695c-0.694,0.4-1.452,0.6-2.273,0.6
		c-0.982,0-1.726-0.338-2.229-1.015S157.828,32.22,157.828,30.878z"/>
	<path fill="#306AB3" d="M167.997,30.091c0-0.663,0.108-1.292,0.325-1.887s0.515-1.114,0.892-1.557
		c0.379-0.443,0.828-0.793,1.35-1.051c0.521-0.258,1.093-0.387,1.714-0.387c0.791,0,1.492,0.207,2.104,0.62
		c0.612,0.413,1.101,0.913,1.464,1.5v-5.723h1.222v11.566c0,0.334,0.144,0.501,0.431,0.501v1.072
		c-0.205,0.035-0.366,0.053-0.483,0.053c-0.299,0-0.545-0.086-0.738-0.258c-0.193-0.172-0.29-0.378-0.29-0.617v-0.989
		c-0.387,0.607-0.894,1.09-1.521,1.449c-0.627,0.359-1.283,0.538-1.969,0.538c-0.65,0-1.251-0.135-1.802-0.404
		s-1.027-0.625-1.429-1.067s-0.713-0.954-0.936-1.537S167.997,30.724,167.997,30.091z M169.254,30.091
		c0,0.503,0.091,0.982,0.272,1.436s0.428,0.852,0.738,1.194s0.68,0.616,1.107,0.821c0.428,0.205,0.888,0.307,1.38,0.307
		c0.311,0,0.638-0.06,0.979-0.18c0.344-0.12,0.661-0.285,0.954-0.496s0.548-0.457,0.765-0.738c0.217-0.281,0.349-0.586,0.396-0.914
		v-2.89c-0.117-0.323-0.294-0.626-0.532-0.911c-0.236-0.285-0.502-0.536-0.795-0.752c-0.293-0.217-0.605-0.386-0.936-0.506
		c-0.332-0.121-0.658-0.181-0.98-0.181c-0.504,0-0.963,0.108-1.375,0.326c-0.414,0.217-0.764,0.503-1.051,0.858
		s-0.513,0.761-0.677,1.219S169.254,29.61,169.254,30.091z"/>
</g>
<g>
	<path fill="#306AB3" d="M64.387,46.216c0-0.289,0.063-0.552,0.19-0.789c0.127-0.236,0.307-0.439,0.539-0.607
		c0.232-0.169,0.511-0.298,0.835-0.39c0.324-0.093,0.682-0.139,1.072-0.139c0.313,0,0.633,0.028,0.961,0.085
		s0.619,0.136,0.873,0.237v-0.563c0-0.551-0.157-0.988-0.472-1.313s-0.741-0.486-1.28-0.486c-0.336,0-0.67,0.064-1.002,0.193
		s-0.67,0.313-1.014,0.551l-0.287-0.539c0.406-0.273,0.802-0.478,1.187-0.612s0.786-0.202,1.204-0.202
		c0.76,0,1.363,0.22,1.809,0.659s0.669,1.046,0.669,1.819v2.829c0,0.224,0.098,0.335,0.293,0.335V48
		c-0.063,0.008-0.124,0.014-0.182,0.018s-0.106,0.006-0.146,0.006c-0.159,0-0.304-0.048-0.436-0.143
		c-0.132-0.096-0.205-0.238-0.221-0.429l-0.023-0.49c-0.273,0.366-0.632,0.649-1.075,0.852s-0.894,0.304-1.351,0.304
		c-0.32,0-0.612-0.05-0.876-0.149s-0.489-0.236-0.677-0.412s-0.333-0.379-0.437-0.611C64.438,46.713,64.387,46.47,64.387,46.216z
		 M65.178,46.146c0,0.169,0.031,0.333,0.094,0.492s0.16,0.304,0.293,0.434s0.295,0.235,0.486,0.315
		c0.191,0.081,0.42,0.121,0.686,0.121c0.359,0,0.717-0.078,1.072-0.235s0.639-0.373,0.85-0.647c0.055-0.07,0.102-0.148,0.141-0.232
		c0.039-0.085,0.059-0.162,0.059-0.232v-1.024c-0.273-0.105-0.558-0.187-0.853-0.244c-0.295-0.057-0.581-0.085-0.858-0.085
		c-0.586,0-1.061,0.119-1.424,0.355C65.359,45.399,65.178,45.727,65.178,46.146z"/>
	<path fill="#306AB3" d="M71.488,46.857V39.24h0.814v7.342c0,0.23,0.063,0.412,0.19,0.545s0.308,0.199,0.542,0.199
		c0.09,0,0.194-0.012,0.313-0.035s0.229-0.055,0.331-0.094l0.146,0.656c-0.152,0.063-0.339,0.114-0.56,0.155
		s-0.411,0.062-0.571,0.062c-0.375,0-0.67-0.105-0.885-0.316S71.488,47.244,71.488,46.857z"/>
	<path fill="#306AB3" d="M74.617,40.441V39.24h0.814v1.201H74.617z M74.617,48v-6.252h0.814V48H74.617z"/>
	<path fill="#306AB3" d="M76.463,41.748h0.85l2.314,5.488l2.139-5.488h0.779l-3.252,8.063c-0.121,0.297-0.283,0.518-0.486,0.662
		s-0.488,0.217-0.855,0.217c-0.152,0-0.289-0.012-0.41-0.036v-0.731c0.039,0.008,0.079,0.014,0.12,0.018s0.081,0.006,0.12,0.006
		c0.078,0,0.163-0.008,0.255-0.023s0.159-0.031,0.202-0.047c0.039-0.016,0.08-0.05,0.123-0.103s0.099-0.146,0.167-0.277
		c0.068-0.133,0.155-0.317,0.261-0.554c0.105-0.235,0.238-0.553,0.398-0.95L76.463,41.748z"/>
	<path fill="#306AB3" d="M83.623,45.422v-3.674h0.814v3.527c0,1.414,0.483,2.123,1.449,2.127c0.239,0,0.476-0.04,0.71-0.12
		c0.235-0.079,0.45-0.195,0.646-0.348c0.196-0.151,0.372-0.332,0.528-0.54c0.157-0.209,0.282-0.443,0.376-0.705v-3.941h0.814v5.203
		c0,0.223,0.102,0.334,0.305,0.334V48c-0.163,0.023-0.278,0.035-0.347,0.035c-0.182,0-0.337-0.056-0.467-0.166
		c-0.13-0.111-0.194-0.251-0.194-0.418l-0.018-0.864c-0.279,0.487-0.651,0.863-1.113,1.13c-0.463,0.268-0.968,0.4-1.516,0.4
		c-0.655,0-1.15-0.226-1.485-0.677S83.623,46.316,83.623,45.422z"/>
	<path fill="#306AB3" d="M90.813,48v-6.252h0.738v1.418c0.129-0.223,0.288-0.429,0.478-0.618s0.399-0.353,0.63-0.489
		s0.476-0.24,0.735-0.311s0.53-0.105,0.812-0.105c0.351,0,0.644,0.063,0.879,0.19s0.426,0.307,0.569,0.539
		c0.145,0.232,0.248,0.517,0.313,0.853s0.097,0.707,0.097,1.113V48h-0.814v-3.492c0-0.742-0.107-1.281-0.322-1.617
		s-0.551-0.504-1.008-0.504c-0.238,0-0.478,0.044-0.718,0.132s-0.465,0.212-0.674,0.372s-0.392,0.35-0.548,0.568
		s-0.273,0.457-0.352,0.715V48H90.813z"/>
	<path fill="#306AB3" d="M97.668,48v-1.201h0.697V48H97.668z"/>
	<path fill="#306AB3" d="M99.613,44.854c0-0.441,0.076-0.857,0.229-1.248s0.366-0.731,0.642-1.022s0.605-0.521,0.99-0.688
		s0.808-0.252,1.269-0.252c0.594,0,1.11,0.134,1.55,0.401s0.772,0.63,0.999,1.087l-0.797,0.252c-0.176-0.32-0.419-0.571-0.729-0.753
		s-0.659-0.272-1.046-0.272c-0.32,0-0.618,0.064-0.894,0.193s-0.515,0.304-0.718,0.524s-0.363,0.482-0.48,0.785
		s-0.176,0.634-0.176,0.993c0,0.352,0.061,0.684,0.182,0.996s0.285,0.583,0.492,0.812s0.448,0.409,0.724,0.542
		s0.569,0.199,0.882,0.199c0.199,0,0.397-0.028,0.595-0.085s0.38-0.135,0.548-0.234s0.312-0.214,0.431-0.343s0.204-0.266,0.255-0.41
		l0.791,0.24c-0.09,0.223-0.219,0.429-0.387,0.618s-0.365,0.354-0.592,0.495s-0.479,0.248-0.756,0.322s-0.564,0.111-0.861,0.111
		c-0.457,0-0.877-0.086-1.26-0.258s-0.714-0.407-0.993-0.706s-0.497-0.645-0.653-1.037S99.613,45.303,99.613,44.854z"/>
	<path fill="#306AB3" d="M106.141,44.895c0-0.441,0.078-0.858,0.234-1.251s0.372-0.736,0.647-1.031s0.604-0.53,0.984-0.706
		s0.794-0.264,1.239-0.264c0.448,0,0.862,0.088,1.243,0.264c0.38,0.176,0.707,0.411,0.982,0.706c0.274,0.295,0.49,0.639,0.646,1.031
		c0.156,0.393,0.234,0.81,0.234,1.251c0,0.434-0.078,0.846-0.234,1.236c-0.155,0.391-0.371,0.733-0.646,1.028
		c-0.275,0.295-0.603,0.528-0.982,0.7c-0.381,0.172-0.795,0.258-1.243,0.258c-0.457,0-0.875-0.086-1.254-0.258
		s-0.706-0.405-0.981-0.7s-0.489-0.639-0.642-1.031S106.141,45.324,106.141,44.895z M106.979,44.906
		c0,0.352,0.059,0.677,0.176,0.976s0.277,0.563,0.48,0.791s0.442,0.407,0.718,0.536s0.569,0.193,0.882,0.193
		s0.606-0.066,0.882-0.199s0.518-0.313,0.727-0.542s0.373-0.494,0.492-0.797s0.179-0.63,0.179-0.981c0-0.344-0.06-0.67-0.179-0.979
		s-0.283-0.577-0.492-0.806s-0.449-0.409-0.721-0.542s-0.563-0.199-0.876-0.199s-0.606,0.066-0.882,0.199s-0.515,0.315-0.718,0.548
		s-0.365,0.503-0.486,0.812S106.979,44.555,106.979,44.906z"/>
	<path fill="#306AB3" d="M113.688,48v-6.252h0.738v1.418c0.258-0.48,0.595-0.854,1.011-1.122s0.876-0.401,1.38-0.401
		c0.525,0,0.948,0.147,1.268,0.442s0.511,0.683,0.573,1.163c0.586-1.07,1.396-1.605,2.429-1.605c0.343,0,0.637,0.063,0.88,0.19
		c0.244,0.127,0.439,0.309,0.588,0.545s0.256,0.521,0.324,0.853s0.103,0.701,0.103,1.107V48h-0.814v-3.492
		c0-0.727-0.113-1.262-0.341-1.605c-0.227-0.344-0.573-0.516-1.038-0.516c-0.239,0-0.465,0.044-0.679,0.132
		c-0.213,0.088-0.409,0.212-0.59,0.372c-0.18,0.16-0.338,0.35-0.475,0.568c-0.138,0.219-0.241,0.461-0.312,0.727V48h-0.814v-3.492
		c0-0.742-0.111-1.281-0.334-1.617s-0.566-0.504-1.031-0.504c-0.473,0-0.893,0.163-1.26,0.489s-0.631,0.759-0.791,1.298V48H113.688z
		"/>
</g>
<g>
</g>
<g>
</g>
<g>
</g>
<g>
</g>
<g>
</g>
<g>
</g>
</svg>
