<?xml version="1.0" encoding="utf-8"?>
<svg version="1.1" id="Logo" xmlns="http://www.w3.org/2000/svg" xmlns:xlink="http://www.w3.org/1999/xlink" x="0px" y="0px"
	 viewBox="-207 385.9 180 70" style="enable-background:new -207 385.9 180 70;" xml:space="preserve">
<style type="text/css">
	.st0{fill:#3065A6;}
	.st1{fill:#30609C;}
</style>
<path id="XMLID_2_" class="st0" d="M-189.8,420.7c0-4.7-3.9-8.6-8.6-8.6s-8.6,3.9-8.6,8.6s3.9,8.6,8.6,8.6s8.6,3.9,8.6,8.6
	s3.9,8.6,8.6,8.6s8.6-3.9,8.6-8.6s-3.9-8.6-8.6-8.6S-189.8,425.4-189.8,420.7z"/>
<path id="XMLID_3_" class="st0" d="M-164,429.3c4.7,0,8.6-3.9,8.6-8.6s-3.9-8.6-8.6-8.6s-8.6,3.9-8.6,8.6s-3.9,8.6-8.6,8.6
	s-8.6,3.9-8.6,8.6s3.9,8.6,8.6,8.6s8.6-3.9,8.6-8.6S-168.7,429.3-164,429.3z"/>
<circle id="XMLID_1_" class="st0" cx="-181.2" cy="420.7" r="6.1"/>
<path id="XMLID_4_" class="st0" d="M-172.6,403.5c0-4.7-3.9-8.6-8.6-8.6s-8.6,3.9-8.6,8.6s3.9,8.6,8.6,8.6s8.6,3.9,8.6,8.6
	s3.9,8.6,8.6,8.6s8.6-3.9,8.6-8.6s-3.9-8.6-8.6-8.6S-172.6,408.2-172.6,403.5z"/>
<g id="XMLID_5_">
	<path id="XMLID_6_" class="st0" d="M-141.4,411.6c-0.8,1.6-1.7,3-2.8,4.4v14.9h-1.5v-13c-1.2,1.4-2.5,2.7-3.8,3.7
		c-0.2-0.3-0.9-0.8-1.2-1c3.1-2.3,6.1-5.8,7.9-9.5L-141.4,411.6z M-141.4,407.4v2.9h-1.5v-2.9h-7.8v-1.4h7.8v-3.2h1.5v3.2h8.6v-3.2
		h1.5v3.2h7.7v1.4h-7.7v3.1h-1.5v-3.1H-141.4z M-126.5,429c1.6,0,1.8-0.8,2-4.9c0.4,0.3,1,0.6,1.4,0.7c-0.2,4.4-0.7,5.7-3.4,5.7
		h-6.4c-2.7,0-3.5-0.6-3.5-3v-5.8c-1.4,0.7-2.8,1.3-4.2,1.9c-0.1-0.4-0.4-0.8-0.6-1.2c1.6-0.7,3.2-1.4,4.8-2.2V411h1.5v8.3
		c3.4-1.8,6.7-3.7,8.8-5.5l1.1,1.1c-2.5,2-6.2,3.9-9.9,5.8v6.6c0,1.2,0.3,1.5,2,1.5H-126.5z"/>
	<path id="XMLID_10_" class="st0" d="M-100.3,415.2c2.1,2.8,5.6,5.1,9.2,6.2c-0.3,0.3-0.8,0.9-1,1.2c-3.9-1.4-7.7-4.1-9.9-7.4h-7.7
		c-2.3,2.9-5.3,5.4-9.2,7.3c-0.2-0.3-0.7-0.9-1-1.1c3.4-1.6,6.2-3.7,8.3-6.1h-7.4v-1.4h8.5c1-1.3,1.8-2.6,2.5-3.9h-9v-1.4h9.7
		c0.8-2,1.3-3.9,1.6-5.8l1.5,0.2c-0.3,1.8-0.8,3.7-1.6,5.6h4.4c1.1-1.3,2.5-3.4,3.3-4.8l1.4,0.5c-0.9,1.4-2.1,3-3.2,4.3h5.6v1.4
		h-12.1c-0.7,1.3-1.4,2.7-2.3,3.9h16.6v1.4H-100.3z M-111.5,408.3c-0.5-1.1-1.7-2.8-2.8-4l1.1-0.7c1.1,1.2,2.3,2.8,2.9,3.9
		L-111.5,408.3z M-99.2,429.1c2,0,2.3-0.6,2.5-4c0.4,0.3,1,0.5,1.4,0.6c-0.3,3.9-0.9,4.8-3.9,4.8h-9.1c-3.4,0-4.4-0.5-4.4-2.7v-8.9
		h13.4c0,0,0,0.5,0,0.7c-0.2,3.5-0.5,4.9-1.1,5.5c-0.4,0.4-0.9,0.6-1.7,0.6c-0.8,0.1-2.5,0-4.1-0.1c-0.1-0.4-0.2-0.9-0.4-1.2
		c1.8,0.2,3.5,0.2,4,0.2c0.6,0,0.9,0,1.1-0.2c0.3-0.3,0.6-1.4,0.7-3.9h-10.4v7.6c0,1.1,0.5,1.3,2.9,1.3H-99.2z"/>
	<path id="XMLID_14_" class="st0" d="M-81,413.7c1,1.1,3.8,4.9,4.5,5.9l-1,1.2c-0.6-1.1-2.3-3.7-3.5-5.4v15.5h-1.5v-15.3
		c-1.4,3.5-3.4,7.2-5.2,9.3c-0.2-0.4-0.6-1-0.8-1.3c2.1-2.3,4.5-6.8,5.8-10.7H-88v-1.4h5.5v-5.4c-1.6,0.3-3.3,0.6-4.8,0.9
		c-0.1-0.3-0.3-0.8-0.5-1.2c3.5-0.6,7.6-1.5,9.9-2.5l1,1.2c-1.1,0.5-2.6,0.9-4.2,1.3v5.7h4.9v1.4H-81V413.7z M-64.1,422.6v8.3h-1.5
		v-8.1l-10.6,1.6l-0.2-1.4l10.9-1.7v-18.6h1.5v18.4l4-0.6l0.2,1.4L-64.1,422.6z M-69,418.5c-1.2-1.3-3.7-3.2-5.8-4.4l0.9-0.9
		c2.1,1.2,4.7,3,5.9,4.3L-69,418.5z M-68.4,410.3c-1-1.3-3.3-3.1-5.2-4.3l0.9-0.9c2,1.1,4.2,2.9,5.3,4.1L-68.4,410.3z"/>
	<path id="XMLID_19_" class="st0" d="M-46.6,418c-1.3,0.4-2.7,0.8-4,1.3v9.6c0,1.1-0.3,1.5-1,1.8c-0.7,0.2-1.9,0.3-4,0.2
		c-0.1-0.4-0.3-1-0.5-1.4c1.6,0,3,0,3.4,0c0.4,0,0.6-0.2,0.6-0.6v-9.1c-1.5,0.4-2.9,0.9-4.1,1.3l-0.5-1.5c1.3-0.3,2.9-0.8,4.6-1.3
		v-7.6h-4.3v-1.4h4.3v-6.5h1.5v6.5h3.7v1.4h-3.7v7.1c1.2-0.4,2.5-0.8,3.8-1.1L-46.6,418z M-30.4,414.9c-1.3,4.2-3.7,7.6-6.6,10.2
		c2.4,2.1,5.2,3.6,8.5,4.5c-0.4,0.3-0.7,0.9-1,1.3c-3.4-1-6.2-2.6-8.6-4.8c-2.9,2.3-6.1,3.9-9.3,4.8c-0.2-0.4-0.6-1-0.8-1.4
		c3.1-0.8,6.3-2.3,9-4.5c-2.4-2.5-4.2-5.5-5.5-9.1h-1.1v-1.4h7v-5.2h-7.7v-1.4h7.7v-5.2h1.5v5.2h7.7v1.4h-7.7v5.2h5.6l0.3-0.1
		L-30.4,414.9z M-43.2,416c1.1,3.1,2.9,5.9,5.2,8.2c2.4-2.2,4.5-4.9,5.7-8.2H-43.2z"/>
</g>
<g id="XMLID_51_">
	<path id="XMLID_52_" class="st1" d="M-148.1,437l0.2-0.2c0.3,0.3,0.6,0.5,1.1,0.5c0.5,0,0.9-0.3,0.9-0.7c0-0.4-0.3-0.6-0.6-0.7
		l-0.5-0.2c-0.3-0.1-0.7-0.4-0.7-0.9c0-0.5,0.5-0.9,1.1-0.9c0.4,0,0.8,0.2,1,0.4l-0.2,0.2c-0.2-0.2-0.5-0.4-0.9-0.4
		c-0.5,0-0.8,0.2-0.8,0.6c0,0.4,0.4,0.6,0.6,0.7l0.5,0.2c0.4,0.2,0.8,0.4,0.8,1c0,0.6-0.5,1-1.2,1
		C-147.4,437.6-147.8,437.4-148.1,437z"/>
	<path id="XMLID_54_" class="st1" d="M-144.9,433.6h0.3v1.1l0,0.6c0.3-0.3,0.5-0.5,0.9-0.5c0.6,0,0.8,0.3,0.8,1v1.7h-0.3v-1.7
		c0-0.6-0.2-0.8-0.6-0.8c-0.3,0-0.5,0.2-0.8,0.5v2h-0.3V433.6z"/>
	<path id="XMLID_56_" class="st1" d="M-142.1,436.9c0-0.6,0.5-0.9,1.7-1c0-0.4-0.1-0.8-0.6-0.8c-0.3,0-0.7,0.2-0.8,0.3l-0.1-0.2
		c0.2-0.1,0.6-0.3,1-0.3c0.6,0,0.9,0.5,0.9,1v1.7h-0.2l0-0.3h0c-0.3,0.2-0.6,0.4-0.9,0.4C-141.7,437.6-142.1,437.3-142.1,436.9z
		 M-140.4,436.9v-0.9c-1,0.1-1.4,0.4-1.4,0.8c0,0.4,0.2,0.5,0.5,0.5C-141,437.3-140.7,437.2-140.4,436.9z"/>
	<path id="XMLID_59_" class="st1" d="M-139.1,434.9h0.2l0,0.4h0c0.3-0.3,0.5-0.5,0.9-0.5c0.6,0,0.8,0.3,0.8,1v1.7h-0.3v-1.7
		c0-0.6-0.2-0.8-0.6-0.8c-0.3,0-0.5,0.2-0.8,0.5v2h-0.3V434.9z"/>
	<path id="XMLID_61_" class="st1" d="M-136.3,438.1c0-0.2,0.2-0.5,0.4-0.6v0c-0.1-0.1-0.2-0.2-0.2-0.4c0-0.2,0.2-0.4,0.3-0.5v0
		c-0.2-0.1-0.3-0.4-0.3-0.7c0-0.6,0.4-0.9,1-0.9c0.1,0,0.3,0,0.4,0.1h0.9v0.2h-0.6c0.2,0.1,0.3,0.4,0.3,0.6c0,0.5-0.4,0.9-0.9,0.9
		c-0.1,0-0.3,0-0.4-0.1c-0.1,0.1-0.2,0.2-0.2,0.4c0,0.2,0.1,0.3,0.5,0.3h0.6c0.6,0,0.9,0.2,0.9,0.6c0,0.5-0.5,0.9-1.3,0.9
		C-135.8,438.8-136.3,438.5-136.3,438.1z M-134.2,437.9c0-0.3-0.2-0.4-0.6-0.4h-0.5c-0.1,0-0.2,0-0.3,0c-0.2,0.2-0.3,0.4-0.3,0.5
		c0,0.3,0.3,0.5,0.9,0.5C-134.6,438.6-134.2,438.2-134.2,437.9z M-134.6,435.7c0-0.4-0.3-0.7-0.7-0.7c-0.4,0-0.7,0.3-0.7,0.7
		c0,0.4,0.3,0.7,0.7,0.7C-134.9,436.5-134.6,436.2-134.6,435.7z"/>
	<path id="XMLID_65_" class="st1" d="M-133.3,433.6h0.3v1.1l0,0.6c0.3-0.3,0.5-0.5,0.9-0.5c0.6,0,0.8,0.3,0.8,1v1.7h-0.3v-1.7
		c0-0.6-0.2-0.8-0.6-0.8c-0.3,0-0.5,0.2-0.8,0.5v2h-0.3V433.6z"/>
	<path id="XMLID_67_" class="st1" d="M-130.4,436.9c0-0.6,0.5-0.9,1.7-1c0-0.4-0.1-0.8-0.6-0.8c-0.3,0-0.7,0.2-0.8,0.3l-0.1-0.2
		c0.2-0.1,0.6-0.3,1-0.3c0.6,0,0.9,0.5,0.9,1v1.7h-0.2l0-0.3h0c-0.3,0.2-0.6,0.4-0.9,0.4C-130.1,437.6-130.4,437.3-130.4,436.9z
		 M-128.7,436.9v-0.9c-1,0.1-1.4,0.4-1.4,0.8c0,0.4,0.2,0.5,0.5,0.5C-129.3,437.3-129.1,437.2-128.7,436.9z"/>
	<path id="XMLID_70_" class="st1" d="M-127.5,434c0-0.1,0.1-0.2,0.2-0.2c0.1,0,0.2,0.1,0.2,0.2c0,0.1-0.1,0.2-0.2,0.2
		C-127.4,434.2-127.5,434.1-127.5,434z M-127.4,434.9h0.3v2.7h-0.3V434.9z"/>
	<path id="XMLID_73_" class="st1" d="M-124.9,433.9h0.3v1.6h1.9v-1.6h0.3v3.6h-0.3v-1.8h-1.9v1.8h-0.3V433.9z"/>
	<path id="XMLID_75_" class="st1" d="M-121.3,436.6v-1.7h0.3v1.7c0,0.5,0.2,0.8,0.6,0.8c0.3,0,0.5-0.2,0.8-0.5v-1.9h0.3v2.7h-0.2
		l0-0.4h0c-0.3,0.3-0.5,0.5-0.9,0.5C-121.1,437.6-121.3,437.2-121.3,436.6z"/>
	<path id="XMLID_77_" class="st1" d="M-118.5,436.9c0-0.6,0.5-0.9,1.7-1c0-0.4-0.1-0.8-0.6-0.8c-0.3,0-0.7,0.2-0.8,0.3l-0.1-0.2
		c0.2-0.1,0.6-0.3,1-0.3c0.6,0,0.9,0.5,0.9,1v1.7h-0.2l0-0.3h0c-0.3,0.2-0.6,0.4-0.9,0.4C-118.1,437.6-118.5,437.3-118.5,436.9z
		 M-116.8,436.9v-0.9c-1,0.1-1.4,0.4-1.4,0.8c0,0.4,0.2,0.5,0.5,0.5C-117.3,437.3-117.1,437.2-116.8,436.9z"/>
	<path id="XMLID_80_" class="st1" d="M-116.1,438.7l0.1-0.2c0.1,0,0.2,0.1,0.3,0.1c0.3,0,0.3-0.2,0.3-0.6v-3.1h0.3v3.1
		c0,0.5-0.2,0.8-0.6,0.8C-115.9,438.8-116.1,438.7-116.1,438.7z M-115.5,434c0-0.1,0.1-0.2,0.2-0.2s0.2,0.1,0.2,0.2
		c0,0.1-0.1,0.2-0.2,0.2S-115.5,434.1-115.5,434z"/>
	<path id="XMLID_83_" class="st1" d="M-114.1,436.6v-1.7h0.3v1.7c0,0.5,0.2,0.8,0.6,0.8c0.3,0,0.5-0.2,0.8-0.5v-1.9h0.3v2.7h-0.2
		l0-0.4h0c-0.3,0.3-0.5,0.5-0.9,0.5C-113.9,437.6-114.1,437.2-114.1,436.6z"/>
	<path id="XMLID_85_" class="st1" d="M-111.3,436.9c0-0.6,0.5-0.9,1.7-1c0-0.4-0.1-0.8-0.6-0.8c-0.3,0-0.7,0.2-0.8,0.3l-0.1-0.2
		c0.2-0.1,0.6-0.3,1-0.3c0.6,0,0.9,0.5,0.9,1v1.7h-0.2l0-0.3h0c-0.3,0.2-0.6,0.4-0.9,0.4C-110.9,437.6-111.3,437.3-111.3,436.9z
		 M-109.6,436.9v-0.9c-1,0.1-1.4,0.4-1.4,0.8c0,0.4,0.2,0.5,0.5,0.5S-109.9,437.2-109.6,436.9z"/>
	<path id="XMLID_88_" class="st1" d="M-108.3,434.9h0.2l0,0.4h0c0.3-0.3,0.5-0.5,0.9-0.5c0.6,0,0.8,0.3,0.8,1v1.7h-0.3v-1.7
		c0-0.6-0.2-0.8-0.6-0.8c-0.3,0-0.5,0.2-0.8,0.5v2h-0.3V434.9z"/>
	<path id="XMLID_90_" class="st1" d="M-104,433.9h0.3v3.6h-0.3V433.9z"/>
	<path id="XMLID_92_" class="st1" d="M-102.6,434.9h0.2l0,0.4h0c0.3-0.3,0.5-0.5,0.9-0.5c0.6,0,0.8,0.3,0.8,1v1.7h-0.3v-1.7
		c0-0.6-0.2-0.8-0.6-0.8c-0.3,0-0.5,0.2-0.8,0.5v2h-0.3V434.9z"/>
	<path id="XMLID_94_" class="st1" d="M-98.5,433.8c-0.1,0-0.2-0.1-0.3-0.1c-0.3,0-0.4,0.2-0.4,0.6v0.5h0.6v0.2h-0.6v2.4h-0.3v-2.4
		h-0.4v-0.2l0.4,0v-0.6c0-0.5,0.2-0.8,0.7-0.8c0.1,0,0.3,0,0.4,0.1L-98.5,433.8z"/>
	<path id="XMLID_96_" class="st1" d="M-98.3,436.2c0-0.9,0.6-1.4,1.2-1.4c0.6,0,1.2,0.5,1.2,1.4c0,0.9-0.6,1.4-1.2,1.4
		C-97.7,437.6-98.3,437.1-98.3,436.2z M-96.2,436.2c0-0.7-0.4-1.1-0.9-1.1c-0.5,0-0.9,0.5-0.9,1.1c0,0.7,0.4,1.1,0.9,1.1
		C-96.6,437.3-96.2,436.9-96.2,436.2z"/>
	<path id="XMLID_99_" class="st1" d="M-95,434.9h0.2l0,0.5h0c0.2-0.3,0.4-0.6,0.8-0.6c0.1,0,0.2,0,0.3,0.1l-0.1,0.3
		c-0.1,0-0.1,0-0.2,0c-0.2,0-0.5,0.2-0.7,0.7v1.8H-95V434.9z"/>
	<path id="XMLID_101_" class="st1" d="M-93.2,434.9h0.2l0,0.4h0c0.2-0.3,0.5-0.5,0.8-0.5c0.4,0,0.6,0.2,0.7,0.5
		c0.3-0.3,0.6-0.5,0.9-0.5c0.5,0,0.8,0.3,0.8,1v1.7h-0.3v-1.7c0-0.6-0.2-0.8-0.6-0.8c-0.2,0-0.5,0.2-0.8,0.5v2h-0.3v-1.7
		c0-0.6-0.2-0.8-0.6-0.8c-0.2,0-0.5,0.2-0.8,0.5v2h-0.3V434.9z"/>
	<path id="XMLID_103_" class="st1" d="M-88.8,436.9c0-0.6,0.5-0.9,1.7-1c0-0.4-0.1-0.8-0.6-0.8c-0.3,0-0.7,0.2-0.8,0.3l-0.1-0.2
		c0.2-0.1,0.6-0.3,1-0.3c0.6,0,0.9,0.5,0.9,1v1.7H-87l0-0.3h0c-0.3,0.2-0.6,0.4-0.9,0.4C-88.4,437.6-88.8,437.3-88.8,436.9z
		 M-87.1,436.9v-0.9c-1,0.1-1.4,0.4-1.4,0.8c0,0.4,0.2,0.5,0.5,0.5C-87.6,437.3-87.4,437.2-87.1,436.9z"/>
	<path id="XMLID_106_" class="st1" d="M-85.8,436.8v-1.7h-0.4v-0.2l0.4,0l0-0.8h0.2v0.8h0.8v0.2h-0.8v1.7c0,0.3,0.1,0.6,0.4,0.6
		c0.1,0,0.2,0,0.3-0.1l0.1,0.2c-0.2,0.1-0.3,0.1-0.4,0.1C-85.6,437.6-85.8,437.3-85.8,436.8z"/>
	<path id="XMLID_108_" class="st1" d="M-84.1,434c0-0.1,0.1-0.2,0.2-0.2c0.1,0,0.2,0.1,0.2,0.2c0,0.1-0.1,0.2-0.2,0.2
		C-84,434.2-84.1,434.1-84.1,434z M-84,434.9h0.3v2.7H-84V434.9z"/>
	<path id="XMLID_124_" class="st1" d="M-82.9,436.2c0-0.9,0.6-1.4,1.2-1.4c0.6,0,1.2,0.5,1.2,1.4c0,0.9-0.6,1.4-1.2,1.4
		C-82.3,437.6-82.9,437.1-82.9,436.2z M-80.8,436.2c0-0.7-0.4-1.1-0.9-1.1c-0.5,0-0.9,0.5-0.9,1.1c0,0.7,0.4,1.1,0.9,1.1
		C-81.1,437.3-80.8,436.9-80.8,436.2z"/>
	<path id="XMLID_127_" class="st1" d="M-79.6,434.9h0.2l0,0.4h0c0.3-0.3,0.5-0.5,0.9-0.5c0.6,0,0.8,0.3,0.8,1v1.7h-0.3v-1.7
		c0-0.6-0.2-0.8-0.6-0.8c-0.3,0-0.5,0.2-0.8,0.5v2h-0.3V434.9z"/>
	<path id="XMLID_129_" class="st1" d="M-74.6,434.1h-1.1v-0.3h2.6v0.3h-1.1v3.4h-0.3V434.1z"/>
	<path id="XMLID_131_" class="st1" d="M-72.9,436.2c0-0.9,0.6-1.4,1.2-1.4c0.6,0,1,0.5,1,1.2c0,0.1,0,0.1,0,0.2h-1.9
		c0,0.6,0.4,1.1,1,1.1c0.3,0,0.5-0.1,0.7-0.2l0.1,0.2c-0.2,0.1-0.5,0.3-0.8,0.3C-72.4,437.6-72.9,437.1-72.9,436.2z M-71,436
		c0-0.6-0.3-1-0.8-1c-0.4,0-0.8,0.4-0.9,1H-71z"/>
	<path id="XMLID_134_" class="st1" d="M-70.2,436.2c0-0.9,0.6-1.4,1.2-1.4c0.4,0,0.6,0.2,0.8,0.3l-0.2,0.2c-0.2-0.2-0.4-0.3-0.6-0.3
		c-0.5,0-0.9,0.5-0.9,1.1c0,0.7,0.4,1.1,0.9,1.1c0.3,0,0.5-0.1,0.7-0.3l0.1,0.2c-0.2,0.2-0.5,0.3-0.8,0.3
		C-69.7,437.6-70.2,437.1-70.2,436.2z"/>
	<path id="XMLID_136_" class="st1" d="M-67.4,433.6h0.3v1.1l0,0.6c0.3-0.3,0.5-0.5,0.9-0.5c0.6,0,0.8,0.3,0.8,1v1.7h-0.3v-1.7
		c0-0.6-0.2-0.8-0.6-0.8c-0.3,0-0.5,0.2-0.8,0.5v2h-0.3V433.6z"/>
	<path id="XMLID_138_" class="st1" d="M-64.4,434.9h0.2l0,0.4h0c0.3-0.3,0.5-0.5,0.9-0.5c0.6,0,0.8,0.3,0.8,1v1.7h-0.3v-1.7
		c0-0.6-0.2-0.8-0.6-0.8c-0.3,0-0.5,0.2-0.8,0.5v2h-0.3V434.9z"/>
	<path id="XMLID_140_" class="st1" d="M-61.6,436.2c0-0.9,0.6-1.4,1.2-1.4s1.2,0.5,1.2,1.4c0,0.9-0.6,1.4-1.2,1.4
		S-61.6,437.1-61.6,436.2z M-59.5,436.2c0-0.7-0.4-1.1-0.9-1.1s-0.9,0.5-0.9,1.1c0,0.7,0.4,1.1,0.9,1.1S-59.5,436.9-59.5,436.2z"/>
	<path id="XMLID_143_" class="st1" d="M-58.3,437.1v-3.6h0.3v3.6c0,0.1,0,0.2,0.1,0.2c0,0,0,0,0.1,0l0,0.2c0,0-0.1,0-0.2,0
		C-58.2,437.6-58.3,437.4-58.3,437.1z"/>
	<path id="XMLID_145_" class="st1" d="M-57.1,436.2c0-0.9,0.6-1.4,1.2-1.4s1.2,0.5,1.2,1.4c0,0.9-0.6,1.4-1.2,1.4
		S-57.1,437.1-57.1,436.2z M-55,436.2c0-0.7-0.4-1.1-0.9-1.1s-0.9,0.5-0.9,1.1c0,0.7,0.4,1.1,0.9,1.1S-55,436.9-55,436.2z"/>
	<path id="XMLID_148_" class="st1" d="M-54.1,438.1c0-0.2,0.2-0.5,0.4-0.6v0c-0.1-0.1-0.2-0.2-0.2-0.4c0-0.2,0.2-0.4,0.3-0.5v0
		c-0.2-0.1-0.3-0.4-0.3-0.7c0-0.6,0.4-0.9,1-0.9c0.1,0,0.3,0,0.4,0.1h0.9v0.2h-0.6c0.2,0.1,0.3,0.4,0.3,0.6c0,0.5-0.4,0.9-0.9,0.9
		c-0.1,0-0.3,0-0.4-0.1c-0.1,0.1-0.2,0.2-0.2,0.4c0,0.2,0.1,0.3,0.5,0.3h0.6c0.6,0,0.9,0.2,0.9,0.6c0,0.5-0.5,0.9-1.3,0.9
		C-53.6,438.8-54.1,438.5-54.1,438.1z M-52,437.9c0-0.3-0.2-0.4-0.6-0.4h-0.5c-0.1,0-0.2,0-0.3,0c-0.2,0.2-0.3,0.4-0.3,0.5
		c0,0.3,0.3,0.5,0.9,0.5C-52.4,438.6-52,438.2-52,437.9z M-52.4,435.7c0-0.4-0.3-0.7-0.7-0.7c-0.4,0-0.7,0.3-0.7,0.7
		c0,0.4,0.3,0.7,0.7,0.7C-52.7,436.5-52.4,436.2-52.4,435.7z"/>
	<path id="XMLID_152_" class="st1" d="M-51.3,438.7l0.1-0.2c0.1,0,0.1,0,0.2,0c0.3,0,0.5-0.3,0.7-0.7l0.1-0.2l-1.1-2.7h0.3l0.6,1.6
		c0.1,0.2,0.2,0.5,0.3,0.7h0c0.1-0.2,0.2-0.5,0.2-0.7l0.5-1.6h0.3l-1,3c-0.2,0.5-0.4,0.9-0.9,0.9C-51.1,438.7-51.2,438.7-51.3,438.7
		z"/>
	<path id="XMLID_154_" class="st1" d="M-47.5,435.7c0-1.2,0.6-1.9,1.6-1.9c0.4,0,0.8,0.2,1,0.4l-0.2,0.2c-0.2-0.2-0.5-0.4-0.8-0.4
		c-0.8,0-1.3,0.6-1.3,1.6c0,1,0.5,1.6,1.2,1.6c0.4,0,0.6-0.2,0.9-0.4l0.2,0.2c-0.3,0.3-0.6,0.5-1.1,0.5
		C-46.8,437.6-47.5,436.9-47.5,435.7z"/>
	<path id="XMLID_156_" class="st1" d="M-44.3,436.2c0-0.9,0.6-1.4,1.2-1.4c0.6,0,1.2,0.5,1.2,1.4c0,0.9-0.6,1.4-1.2,1.4
		C-43.7,437.6-44.3,437.1-44.3,436.2z M-42.2,436.2c0-0.7-0.4-1.1-0.9-1.1c-0.5,0-0.9,0.5-0.9,1.1c0,0.7,0.4,1.1,0.9,1.1
		C-42.5,437.3-42.2,436.9-42.2,436.2z"/>
	<path id="XMLID_159_" class="st1" d="M-41.2,437.3c0-0.2,0.1-0.3,0.3-0.3c0.1,0,0.3,0.1,0.3,0.3c0,0.2-0.1,0.3-0.3,0.3
		C-41.1,437.6-41.2,437.5-41.2,437.3z"/>
	<path id="XMLID_161_" class="st1" d="M-40,438.2c0.3-0.1,0.4-0.4,0.4-0.7c0,0,0,0-0.1,0c-0.1,0-0.3-0.1-0.3-0.3
		c0-0.2,0.1-0.2,0.3-0.2c0.2,0,0.3,0.2,0.3,0.4c0,0.4-0.2,0.7-0.6,0.9L-40,438.2z"/>
	<path id="XMLID_163_" class="st1" d="M-37.2,433.9h0.3v3.4h1.7v0.3h-2V433.9z"/>
	<path id="XMLID_165_" class="st1" d="M-34.6,436.8v-1.7H-35v-0.2l0.4,0l0-0.8h0.2v0.8h0.8v0.2h-0.8v1.7c0,0.3,0.1,0.6,0.4,0.6
		c0.1,0,0.2,0,0.3-0.1l0.1,0.2c-0.2,0.1-0.3,0.1-0.4,0.1C-34.4,437.6-34.6,437.3-34.6,436.8z"/>
	<path id="XMLID_167_" class="st1" d="M-33.1,436.2c0-0.9,0.5-1.4,1.2-1.4c0.3,0,0.5,0.1,0.8,0.3l0-0.5v-1.1h0.3v4h-0.2l0-0.3h0
		c-0.2,0.2-0.5,0.4-0.9,0.4C-32.7,437.6-33.1,437.1-33.1,436.2z M-31.1,436.9v-1.5c-0.3-0.2-0.5-0.3-0.7-0.3c-0.5,0-0.9,0.5-0.9,1.1
		c0,0.7,0.3,1.1,0.8,1.1C-31.7,437.3-31.4,437.2-31.1,436.9z"/>
	<path id="XMLID_170_" class="st1" d="M-29.9,437.3c0-0.2,0.1-0.3,0.3-0.3s0.3,0.1,0.3,0.3c0,0.2-0.1,0.3-0.3,0.3
		S-29.9,437.5-29.9,437.3z"/>
</g>
</svg>
