<?xml version="1.0" encoding="utf-8"?>
<svg version="1.1" xmlns="http://www.w3.org/2000/svg" xmlns:xlink="http://www.w3.org/1999/xlink" x="0px" y="0px"
	 viewBox="0 0 1609 465" style="enable-background:new 0 0 1609 465;" xml:space="preserve">
<style type="text/css">
	.st0{fill:#3065A7;}
	.st1{fill:#2F609D;}
</style>
<g id="Logo">
	<path id="XMLID_2_" class="st0" d="M155,232.5c0-42.8-34.7-77.5-77.5-77.5S0,189.7,0,232.5S34.7,310,77.5,310s77.5,34.7,77.5,77.5
		s34.7,77.5,77.5,77.5s77.5-34.7,77.5-77.5S275.3,310,232.5,310S155,275.3,155,232.5z"/>
	<path id="XMLID_3_" class="st0" d="M387.5,310c42.8,0,77.5-34.7,77.5-77.5S430.3,155,387.5,155S310,189.7,310,232.5
		S275.3,310,232.5,310S155,344.7,155,387.5s34.7,77.5,77.5,77.5s77.5-34.7,77.5-77.5S344.7,310,387.5,310z"/>
	<circle id="XMLID_1_" class="st0" cx="232.5" cy="232.5" r="54.8"/>
	<path id="XMLID_4_" class="st0" d="M310,77.5C310,34.7,275.3,0,232.5,0S155,34.7,155,77.5s34.7,77.5,77.5,77.5s77.5,34.7,77.5,77.5
		s34.7,77.5,77.5,77.5s77.5-34.7,77.5-77.5S430.3,155,387.5,155S310,120.3,310,77.5z"/>
</g>
<g id="Font">
	<g id="XMLID_5_">
		<path id="XMLID_6_" class="st0" d="M590.9,150.5c-7,14-15.7,27.4-24.9,40v133.8h-13.4V207.6c-10.9,12.6-22.7,24.1-34.4,33.6
			c-2.2-2.5-7.8-7-11.2-9.2c28-20.4,54.6-52.6,71.1-85.4L590.9,150.5z M591.2,112.4v25.8h-13.4v-25.8h-70.3V99.5h70.3V70.7h13.4
			v28.8h77.6V70.7h13.4v28.8h69.2v12.9h-69.2v28h-13.4v-28H591.2z M725,307c14,0,16.2-7.6,17.9-44.5c3.4,2.8,8.7,5,12.6,6.2
			c-2.2,40-6.2,51.5-30.2,51.5h-57.4c-24.4,0-31.4-5.3-31.4-27.2v-52.6c-12.3,5.9-24.9,11.5-37.5,17.1c-0.6-3.4-3.4-7.6-5.3-10.6
			c14-5.9,28.6-12.6,42.8-19.6v-81.8H650v75c31.1-16.2,60.2-33.3,79.2-49.3l10.4,10.4c-23,17.6-55.7,35.6-89.6,52.4v59.4
			c0,10.9,3.1,13.7,18.2,13.7H725z"/>
		<path id="XMLID_10_" class="st0" d="M961,182.7c19,25.2,50.7,45.9,83.2,55.4c-3.1,2.8-7,7.8-9,11.2c-35-12.3-69.4-36.7-89.3-66.6
			h-69.2c-20.7,26-48.2,49-82.9,65.5c-1.7-3.1-5.9-7.8-8.7-10.4c30.5-14,55.4-33.3,74.5-55.2h-66.9v-12.3h77
			c8.7-11.5,16-23.5,22.1-35.6h-81.5v-12.3h87.1c7.6-17.6,12-35,14.6-52.1l13.7,1.7c-2.8,16.2-7.3,33.3-14,50.4h39.8
			c10.4-12,22.7-30.8,29.7-43.4l12.3,4.8c-8.4,12.9-18.8,27.4-28.6,38.6h50.7v12.3H906.7c-5.9,12-12.6,24.1-20.7,35.6h149.8v12.3
			H961z M860.5,120.5c-4.8-9.5-15.7-24.9-25.2-35.8l10.4-5.9c10.1,10.6,21,25.5,25.8,35.3L860.5,120.5z M971.4,308.4
			c18.2,0,21-5.3,22.7-36.4c3.6,2.8,9,4.5,12.9,5.6c-2.5,34.7-7.8,43.1-35.3,43.1h-82.3c-30.8,0-40-4.2-40-24.4v-80.6h121
			c0,0,0,4.2-0.3,6.2c-2.2,31.6-4.8,44.2-9.8,49.3c-3.9,3.6-8.1,5-15.4,5c-7,0.6-22.1,0.3-37.2-0.8c-0.6-3.6-1.7-7.8-3.9-11.2
			c16,1.4,31.6,1.4,35.8,1.4c5.6,0,8.1-0.3,9.8-2c3.1-3.1,5-12.6,6.7-35.6h-93.5v68.3c0,9.5,4.2,12,26,12H971.4z"/>
		<path id="XMLID_14_" class="st0" d="M1135.5,169.2c9,10.4,34.4,44.2,40.6,52.9l-9,10.6c-5.3-10.1-21-33.6-31.6-48.4v139.4h-13.2
			V186.3c-12.6,31.9-30.2,65-46.8,83.7c-1.4-3.6-5-8.7-7.6-11.5c19-20.7,40.6-61,52.4-96h-47.9v-12.9h49.8v-48.7
			c-14.3,3.1-29.4,5.6-42.8,7.8c-0.8-3.1-2.8-7.6-4.5-10.6c31.4-5.3,68.9-13.2,89-22.7l9,10.9c-10.4,4.2-23.2,8.1-37.5,11.5v51.8
			h44.2v12.9h-44.2V169.2z M1288.1,249.3v74.8h-13.2v-72.8l-95.8,14.8l-2.2-12.6l98-15.1V70.7h13.2v165.8l35.8-5.6l2,12.3
			L1288.1,249.3z M1243.3,212.3c-11.2-12-33.6-29.1-52.6-40l8.1-8.1c19,10.6,42,27.2,52.9,38.9L1243.3,212.3z M1248.9,138.4
			c-9.2-11.5-29.7-27.7-46.8-38.4l8.4-8.4c17.6,10.1,37.8,25.8,47.3,37.2L1248.9,138.4z"/>
		<path id="XMLID_19_" class="st0" d="M1445.2,208.1c-12,3.6-24.1,7.6-35.8,11.5v86.2c0,9.8-2.8,13.4-8.7,16
			c-6.2,2.2-16.8,2.5-35.8,2.2c-0.6-3.4-2.8-8.7-4.5-12.3c14.6,0.3,26.9,0.3,30.2,0c3.9,0,5.6-1.4,5.6-5.6v-82.3
			c-13.4,3.9-26,8.1-37.2,11.5l-4.5-13.2c11.5-3.1,26-7.3,41.7-12v-68h-38.4v-12.9h38.4V70.7h13.2v58.5h33v12.9h-33v64.1
			c11.2-3.4,23-7,34.2-10.4L1445.2,208.1z M1591.3,180.7c-12,37.8-33.3,68.3-59.4,91.8c21.3,18.5,47,32.5,77,40.6
			c-3.4,2.8-6.7,7.8-9,11.5c-30.2-9-56.3-23.8-77.8-43.7c-25.8,20.4-54.9,34.7-84,43.7c-1.4-3.9-5-9.2-7.3-12.3
			c28.3-7.6,56.8-21,81.5-40.6c-21.6-22.1-38.1-49.8-49.6-81.8h-10.1v-12.9h63.3v-47h-69.2v-12.9h69.2V70.7h13.4v46.5h69.7V130
			h-69.7v47h50.7l2.8-0.6L1591.3,180.7z M1476.2,189.9c10.4,28.3,26,53.2,46.5,73.6c21.8-19.6,40.3-44.2,51.5-73.6H1476.2z"/>
	</g>
	<g id="XMLID_51_">
		<path id="XMLID_52_" class="st1" d="M530.4,379.8l1.7-1.9c2.4,2.7,5.8,4.4,9.5,4.4c4.9,0,7.9-2.6,7.9-6.3c0-4-2.6-5.2-5.8-6.7
			l-4.9-2.2c-2.9-1.3-6.7-3.4-6.7-8.2c0-4.9,4.1-8.2,9.7-8.2c4,0,7.2,1.7,9.3,4l-1.5,1.8c-1.9-2-4.5-3.3-7.7-3.3c-4.2,0-7,2.2-7,5.6
			c0,3.7,3.2,5.1,5.6,6.2l4.9,2.2c3.7,1.7,6.9,3.7,6.9,8.7c0,5-4.2,8.9-10.6,8.9C536.8,384.7,533.1,382.8,530.4,379.8z"/>
		<path id="XMLID_54_" class="st1" d="M559.4,348.4h2.6v10.3l0,5.2c2.4-2.4,4.9-4.3,8.2-4.3c5,0,7.3,3.1,7.3,9.3v15.3h-2.6v-15
			c0-5-1.6-7.3-5.3-7.3c-2.8,0-4.8,1.4-7.6,4.3v18h-2.6V348.4z"/>
		<path id="XMLID_56_" class="st1" d="M584.9,378.1c0-5.3,4.7-7.8,15.3-9c0.1-3.6-0.9-7.2-5.5-7.2c-3.2,0-5.9,1.5-7.6,2.7l-1.2-1.9
			c1.8-1.3,5.2-3.2,9.1-3.2c5.7,0,7.7,4.1,7.7,9.4v15.2h-2.2l-0.3-3.1h-0.1c-2.4,2-5.3,3.6-8.4,3.6
			C588,384.7,584.9,382.6,584.9,378.1z M600.2,378.8V371c-9.4,1.1-12.7,3.3-12.7,7c0,3.3,2.3,4.5,4.9,4.5S597.4,381.3,600.2,378.8z"
			/>
		<path id="XMLID_59_" class="st1" d="M611.9,360.2h2.2l0.3,3.6h0.1c2.4-2.4,4.9-4.3,8.2-4.3c5,0,7.3,3.1,7.3,9.3v15.3h-2.6v-15
			c0-5-1.6-7.3-5.3-7.3c-2.8,0-4.8,1.4-7.6,4.3v18h-2.6V360.2z"/>
		<path id="XMLID_61_" class="st1" d="M637.2,389c0-2.1,1.4-4.2,3.6-5.7v-0.2c-1.2-0.7-2.2-2-2.2-3.9c0-2.1,1.6-3.6,2.7-4.5v-0.2
			c-1.5-1.3-3.1-3.6-3.1-6.5c0-5,3.9-8.5,8.6-8.5c1.3,0,2.4,0.3,3.2,0.6h8.2v2.2h-5.4c1.4,1.3,2.5,3.3,2.5,5.8c0,5-3.7,8.5-8.5,8.5
			c-1.3,0-2.8-0.4-3.9-1c-1,0.8-1.9,1.8-1.9,3.3c0,1.7,1,3,4.5,3h5c5.4,0,8,1.7,8,5.5c0,4.2-4.5,8.1-11.5,8.1
			C641.1,395.6,637.2,393.1,637.2,389z M656,387.8c0-2.6-1.9-3.5-5.4-3.5h-4.9c-0.5,0-1.8-0.1-3-0.4c-2.1,1.4-3,3.2-3,4.8
			c0,2.9,2.8,4.9,7.7,4.9C652.7,393.6,656,390.7,656,387.8z M652.8,368c0-4-2.7-6.4-5.9-6.4c-3.3,0-6,2.4-6,6.4c0,3.9,2.8,6.5,6,6.5
			C650,374.6,652.8,372,652.8,368z"/>
		<path id="XMLID_65_" class="st1" d="M664.4,348.4h2.6v10.3l0,5.2c2.4-2.4,4.9-4.3,8.2-4.3c5,0,7.3,3.1,7.3,9.3v15.3h-2.6v-15
			c0-5-1.6-7.3-5.3-7.3c-2.8,0-4.8,1.4-7.6,4.3v18h-2.6V348.4z"/>
		<path id="XMLID_67_" class="st1" d="M689.9,378.1c0-5.3,4.7-7.8,15.3-9c0.1-3.6-0.9-7.2-5.5-7.2c-3.2,0-5.9,1.5-7.6,2.7l-1.2-1.9
			c1.8-1.3,5.2-3.2,9.1-3.2c5.7,0,7.7,4.1,7.7,9.4v15.2h-2.2l-0.3-3.1h-0.1c-2.4,2-5.3,3.6-8.4,3.6
			C693,384.7,689.9,382.6,689.9,378.1z M705.2,378.8V371c-9.4,1.1-12.7,3.3-12.7,7c0,3.3,2.3,4.5,4.9,4.5S702.3,381.3,705.2,378.8z"
			/>
		<path id="XMLID_70_" class="st1" d="M716,352.5c0-1.3,1-2.2,2.2-2.2c1.2,0,2.2,0.8,2.2,2.2c0,1.2-1,2.1-2.2,2.1
			C717,354.5,716,353.7,716,352.5z M716.8,360.2h2.6v24h-2.6V360.2z"/>
		<path id="XMLID_73_" class="st1" d="M740,351.4h2.7v14.2h17.1v-14.2h2.7v32.8h-2.7v-16.2h-17.1v16.2H740V351.4z"/>
		<path id="XMLID_75_" class="st1" d="M772,375.5v-15.3h2.6v15c0,4.9,1.5,7.2,5.2,7.2c2.8,0,4.8-1.4,7.5-4.7v-17.5h2.6v24h-2.2
			l-0.2-4h-0.1c-2.3,2.7-4.8,4.5-8.1,4.5C774.2,384.7,772,381.7,772,375.5z"/>
		<path id="XMLID_77_" class="st1" d="M797.9,378.1c0-5.3,4.7-7.8,15.3-9c0.1-3.6-0.9-7.2-5.5-7.2c-3.2,0-5.9,1.5-7.6,2.7l-1.2-1.9
			c1.8-1.3,5.2-3.2,9.1-3.2c5.7,0,7.7,4.1,7.7,9.4v15.2h-2.2l-0.3-3.1h-0.1c-2.4,2-5.3,3.6-8.4,3.6
			C801,384.7,797.9,382.6,797.9,378.1z M813.2,378.8V371c-9.4,1.1-12.7,3.3-12.7,7c0,3.3,2.3,4.5,4.9,4.5S810.4,381.3,813.2,378.8z"
			/>
		<path id="XMLID_80_" class="st1" d="M818.7,394.8l0.6-2.1c0.6,0.2,1.5,0.5,2.5,0.5c2.7,0,3.2-2.1,3.2-5.1v-27.9h2.7v28
			c0,4.8-1.8,7.2-5.7,7.2C820.6,395.5,819.4,395.2,818.7,394.8z M824.1,352.5c0-1.3,0.9-2.2,2.2-2.2s2.2,0.8,2.2,2.2
			c0,1.2-1,2.1-2.2,2.1S824.1,353.7,824.1,352.5z"/>
		<path id="XMLID_83_" class="st1" d="M836.8,375.5v-15.3h2.6v15c0,4.9,1.5,7.2,5.2,7.2c2.8,0,4.8-1.4,7.5-4.7v-17.5h2.6v24h-2.2
			l-0.2-4h-0.1c-2.3,2.7-4.8,4.5-8.1,4.5C839,384.7,836.8,381.7,836.8,375.5z"/>
		<path id="XMLID_85_" class="st1" d="M862.7,378.1c0-5.3,4.7-7.8,15.3-9c0.1-3.6-0.9-7.2-5.5-7.2c-3.2,0-5.9,1.5-7.6,2.7l-1.2-1.9
			c1.8-1.3,5.2-3.2,9.1-3.2c5.7,0,7.7,4.1,7.7,9.4v15.2h-2.2l-0.3-3.1h-0.1c-2.4,2-5.3,3.6-8.4,3.6
			C865.8,384.7,862.7,382.6,862.7,378.1z M878,378.8V371c-9.4,1.1-12.7,3.3-12.7,7c0,3.3,2.3,4.5,4.9,4.5S875.2,381.3,878,378.8z"/>
		<path id="XMLID_88_" class="st1" d="M889.7,360.2h2.2l0.3,3.6h0.1c2.4-2.4,4.9-4.3,8.2-4.3c5,0,7.3,3.1,7.3,9.3v15.3h-2.6v-15
			c0-5-1.6-7.3-5.3-7.3c-2.8,0-4.8,1.4-7.6,4.3v18h-2.6V360.2z"/>
		<path id="XMLID_90_" class="st1" d="M928,351.4h2.7v32.8H928V351.4z"/>
		<path id="XMLID_92_" class="st1" d="M940.6,360.2h2.2l0.3,3.6h0.1c2.4-2.4,4.9-4.3,8.2-4.3c5,0,7.3,3.1,7.3,9.3v15.3H956v-15
			c0-5-1.6-7.3-5.3-7.3c-2.8,0-4.8,1.4-7.6,4.3v18h-2.6V360.2z"/>
		<path id="XMLID_94_" class="st1" d="M977.5,350.7c-1-0.5-1.9-0.7-2.8-0.7c-2.6,0-3.7,1.9-3.7,5.3v4.9h5.4v2.2H971v21.8h-2.6v-21.8
			H965v-2l3.3-0.2v-5c0-4.8,2.1-7.3,6.2-7.3c1.2,0,2.5,0.3,3.6,0.8L977.5,350.7z"/>
		<path id="XMLID_96_" class="st1" d="M979.6,372.2c0-8,5-12.6,10.8-12.6s10.8,4.6,10.8,12.6c0,8-5,12.6-10.8,12.6
			S979.6,380.2,979.6,372.2z M998.6,372.2c0-6.1-3.5-10.3-8.1-10.3s-8.1,4.2-8.1,10.3c0,6.1,3.4,10.3,8.1,10.3
			S998.6,378.3,998.6,372.2z"/>
		<path id="XMLID_99_" class="st1" d="M1009,360.2h2.2l0.3,4.5h0.1c1.6-3,4-5.1,6.8-5.1c0.9,0,1.7,0.1,2.4,0.5l-0.5,2.3
			c-0.8-0.3-1.3-0.4-2.2-0.4c-2.1,0-4.7,1.6-6.4,6v16.1h-2.6V360.2z"/>
		<path id="XMLID_101_" class="st1" d="M1025.8,360.2h2.2l0.3,3.6h0.1c2.2-2.4,4.9-4.3,7.6-4.3c3.8,0,5.8,1.9,6.6,4.9
			c2.7-2.9,5.3-4.9,8.1-4.9c4.8,0,7.2,3.1,7.2,9.3v15.3h-2.6v-15c0-5-1.7-7.3-5.2-7.3c-2.2,0-4.4,1.4-6.9,4.3v18h-2.6v-15
			c0-5-1.6-7.3-5.2-7.3c-2.1,0-4.4,1.4-6.9,4.3v18h-2.6V360.2z"/>
		<path id="XMLID_103_" class="st1" d="M1065.5,378.1c0-5.3,4.7-7.8,15.3-9c0.1-3.6-0.9-7.2-5.5-7.2c-3.2,0-5.9,1.5-7.6,2.7
			l-1.2-1.9c1.8-1.3,5.2-3.2,9.1-3.2c5.7,0,7.7,4.1,7.7,9.4v15.2h-2.2l-0.3-3.1h-0.1c-2.4,2-5.3,3.6-8.4,3.6
			C1068.6,384.7,1065.5,382.6,1065.5,378.1z M1080.8,378.8V371c-9.4,1.1-12.7,3.3-12.7,7c0,3.3,2.3,4.5,4.9,4.5
			S1078,381.3,1080.8,378.8z"/>
		<path id="XMLID_106_" class="st1" d="M1092.4,377.3v-14.9h-3.7v-2l3.8-0.2l0.3-6.9h2.2v6.9h6.9v2.2h-6.9v15.1c0,3,0.8,5,4,5
			c0.9,0,2.1-0.3,2.9-0.7l0.6,2c-1.4,0.5-2.9,0.9-4,0.9C1093.9,384.7,1092.4,381.8,1092.4,377.3z"/>
		<path id="XMLID_108_" class="st1" d="M1107.5,352.5c0-1.3,1-2.2,2.2-2.2c1.2,0,2.2,0.8,2.2,2.2c0,1.2-1,2.1-2.2,2.1
			C1108.5,354.5,1107.5,353.7,1107.5,352.5z M1108.4,360.2h2.6v24h-2.6V360.2z"/>
		<path id="XMLID_124_" class="st1" d="M1118.6,372.2c0-8,5-12.6,10.8-12.6s10.8,4.6,10.8,12.6c0,8-5,12.6-10.8,12.6
			S1118.6,380.2,1118.6,372.2z M1137.6,372.2c0-6.1-3.5-10.3-8.1-10.3s-8.1,4.2-8.1,10.3c0,6.1,3.4,10.3,8.1,10.3
			S1137.6,378.3,1137.6,372.2z"/>
		<path id="XMLID_127_" class="st1" d="M1148,360.2h2.2l0.3,3.6h0.1c2.4-2.4,4.9-4.3,8.2-4.3c5,0,7.3,3.1,7.3,9.3v15.3h-2.6v-15
			c0-5-1.6-7.3-5.3-7.3c-2.8,0-4.8,1.4-7.6,4.3v18h-2.6V360.2z"/>
		<path id="XMLID_129_" class="st1" d="M1193.3,353.6H1183v-2.3h23.4v2.3H1196v30.5h-2.7V353.6z"/>
		<path id="XMLID_131_" class="st1" d="M1208,372.2c0-7.8,5.1-12.6,10.5-12.6c5.8,0,9.3,4.1,9.3,11.2c0,0.7,0,1.3-0.1,1.9h-17
			c0.1,5.8,3.6,9.9,8.8,9.9c2.6,0,4.6-0.8,6.4-2.1l1,1.9c-1.9,1.2-4.2,2.3-7.6,2.3C1212.9,384.7,1208,380.1,1208,372.2z
			 M1225.4,370.5c0-5.8-2.7-8.7-6.8-8.7c-3.9,0-7.4,3.2-7.9,8.7H1225.4z"/>
		<path id="XMLID_134_" class="st1" d="M1232.8,372.2c0-8,5.2-12.6,11.1-12.6c3.2,0,5.4,1.4,7,2.9l-1.5,1.8
			c-1.5-1.4-3.2-2.4-5.5-2.4c-4.8,0-8.4,4.2-8.4,10.3c0,6.1,3.3,10.3,8.4,10.3c2.5,0,4.6-1.2,6.3-2.7l1.3,1.8
			c-2.1,1.8-4.6,3.1-7.7,3.1C1237.6,384.7,1232.8,380.2,1232.8,372.2z"/>
		<path id="XMLID_136_" class="st1" d="M1257.9,348.4h2.6v10.3l0,5.2c2.4-2.4,4.9-4.3,8.2-4.3c5,0,7.3,3.1,7.3,9.3v15.3h-2.6v-15
			c0-5-1.6-7.3-5.3-7.3c-2.8,0-4.8,1.4-7.6,4.3v18h-2.6V348.4z"/>
		<path id="XMLID_138_" class="st1" d="M1285.1,360.2h2.2l0.3,3.6h0.1c2.4-2.4,4.9-4.3,8.2-4.3c5,0,7.3,3.1,7.3,9.3v15.3h-2.6v-15
			c0-5-1.6-7.3-5.3-7.3c-2.8,0-4.8,1.4-7.6,4.3v18h-2.6V360.2z"/>
		<path id="XMLID_140_" class="st1" d="M1310.5,372.2c0-8,5-12.6,10.8-12.6s10.8,4.6,10.8,12.6c0,8-5,12.6-10.8,12.6
			S1310.5,380.2,1310.5,372.2z M1329.5,372.2c0-6.1-3.5-10.3-8.1-10.3s-8.1,4.2-8.1,10.3c0,6.1,3.4,10.3,8.1,10.3
			S1329.5,378.3,1329.5,372.2z"/>
		<path id="XMLID_143_" class="st1" d="M1339.9,380.6v-32.2h2.6v32.5c0,1.1,0.5,1.6,1.1,1.6c0.2,0,0.4,0,0.9-0.1l0.4,2.1
			c-0.4,0.1-0.9,0.3-1.8,0.3C1340.9,384.7,1339.9,383.4,1339.9,380.6z"/>
		<path id="XMLID_145_" class="st1" d="M1350.6,372.2c0-8,5-12.6,10.8-12.6s10.8,4.6,10.8,12.6c0,8-5,12.6-10.8,12.6
			S1350.6,380.2,1350.6,372.2z M1369.6,372.2c0-6.1-3.5-10.3-8.1-10.3s-8.1,4.2-8.1,10.3c0,6.1,3.4,10.3,8.1,10.3
			S1369.6,378.3,1369.6,372.2z"/>
		<path id="XMLID_148_" class="st1" d="M1378,389c0-2.1,1.4-4.2,3.6-5.7v-0.2c-1.2-0.7-2.2-2-2.2-3.9c0-2.1,1.6-3.6,2.7-4.5v-0.2
			c-1.5-1.3-3.1-3.6-3.1-6.5c0-5,3.9-8.5,8.6-8.5c1.3,0,2.4,0.3,3.2,0.6h8.2v2.2h-5.4c1.4,1.3,2.5,3.3,2.5,5.8c0,5-3.7,8.5-8.5,8.5
			c-1.3,0-2.8-0.4-3.9-1c-1,0.8-1.9,1.8-1.9,3.3c0,1.7,1,3,4.5,3h5c5.4,0,8,1.7,8,5.5c0,4.2-4.5,8.1-11.5,8.1
			C1381.9,395.6,1378,393.1,1378,389z M1396.8,387.8c0-2.6-1.9-3.5-5.4-3.5h-4.9c-0.5,0-1.8-0.1-3-0.4c-2.1,1.4-3,3.2-3,4.8
			c0,2.9,2.8,4.9,7.7,4.9C1393.4,393.6,1396.8,390.7,1396.8,387.8z M1393.5,368c0-4-2.7-6.4-5.9-6.4c-3.3,0-6,2.4-6,6.4
			c0,3.9,2.8,6.5,6,6.5C1390.7,374.6,1393.5,372,1393.5,368z"/>
		<path id="XMLID_152_" class="st1" d="M1402.8,394.5l0.6-2.2c0.5,0.2,1.3,0.4,1.9,0.4c2.9,0,4.8-2.6,6-6.1l0.6-2l-9.8-24.3h2.8
			l5.6,14.7c0.8,2.1,1.7,4.6,2.5,6.8h0.2c0.7-2.2,1.5-4.7,2.2-6.8l4.9-14.7h2.7l-9.4,26.8c-1.4,4.1-3.9,8-8.3,8
			C1404.5,395,1403.5,394.8,1402.8,394.5z"/>
		<path id="XMLID_154_" class="st1" d="M1437.7,367.7c0-10.5,5.8-17,14.1-17c3.9,0,6.9,1.9,8.6,4l-1.5,1.8c-1.8-2-4.1-3.3-7.1-3.3
			c-6.9,0-11.3,5.6-11.3,14.4c0,9,4.3,14.7,11.2,14.7c3.3,0,5.8-1.4,8.1-4l1.5,1.7c-2.5,2.9-5.6,4.7-9.8,4.7
			C1443.4,384.7,1437.7,378.2,1437.7,367.7z"/>
		<path id="XMLID_156_" class="st1" d="M1466.4,372.2c0-8,5-12.6,10.8-12.6s10.8,4.6,10.8,12.6c0,8-5,12.6-10.8,12.6
			S1466.4,380.2,1466.4,372.2z M1485.4,372.2c0-6.1-3.5-10.3-8.1-10.3s-8.1,4.2-8.1,10.3c0,6.1,3.4,10.3,8.1,10.3
			S1485.4,378.3,1485.4,372.2z"/>
		<path id="XMLID_159_" class="st1" d="M1494.1,382.3c0-1.5,1.1-2.5,2.3-2.5s2.3,0.9,2.3,2.5c0,1.5-1.1,2.4-2.3,2.4
			S1494.1,383.8,1494.1,382.3z"/>
		<path id="XMLID_161_" class="st1" d="M1505.1,390.4c2.3-1.2,3.9-3.3,4-6c-0.2,0-0.4,0-0.5,0c-1.3,0-2.3-0.8-2.3-2.3
			c0-1.4,1.2-2.2,2.4-2.2c1.6,0,2.7,1.5,2.7,3.9c0,3.7-2.2,6.8-5.4,8.4L1505.1,390.4z"/>
		<path id="XMLID_163_" class="st1" d="M1530.1,351.4h2.7v30.5h14.9v2.3h-17.6V351.4z"/>
		<path id="XMLID_165_" class="st1" d="M1553.7,377.3v-14.9h-3.7v-2l3.8-0.2l0.3-6.9h2.2v6.9h6.9v2.2h-6.9v15.1c0,3,0.8,5,4,5
			c0.9,0,2.1-0.3,2.9-0.7l0.6,2c-1.4,0.5-2.9,0.9-4,0.9C1555.2,384.7,1553.7,381.8,1553.7,377.3z"/>
		<path id="XMLID_167_" class="st1" d="M1567.1,372.2c0-7.7,5-12.6,10.6-12.6c2.9,0,4.8,1.1,7.2,2.9l-0.2-4.3v-9.8h2.6v35.8h-2.2
			l-0.3-3h-0.1c-1.9,1.9-4.6,3.6-7.7,3.6C1571,384.7,1567.1,380.2,1567.1,372.2z M1584.7,378.7v-13.9c-2.4-2.2-4.5-3-6.7-3
			c-4.6,0-8.1,4.5-8.1,10.3c0,6.2,2.7,10.3,7.6,10.3C1580.1,382.4,1582.3,381.1,1584.7,378.7z"/>
		<path id="XMLID_170_" class="st1" d="M1595.8,382.3c0-1.5,1.1-2.5,2.3-2.5s2.3,0.9,2.3,2.5c0,1.5-1.1,2.4-2.3,2.4
			S1595.8,383.8,1595.8,382.3z"/>
	</g>
</g>
</svg>
