<?xml version="1.0" encoding="utf-8"?>
<!-- Generator: Adobe Illustrator 16.0.0, SVG Export Plug-In . SVG Version: 6.00 Build 0)  -->
<!DOCTYPE svg PUBLIC "-//W3C//DTD SVG 1.1 Tiny//EN" "http://www.w3.org/Graphics/SVG/1.1/DTD/svg11-tiny.dtd">
<svg version="1.1" baseProfile="tiny" id="图层_1"
	 xmlns="http://www.w3.org/2000/svg" xmlns:xlink="http://www.w3.org/1999/xlink" x="0px" y="0px" width="403px" height="93px"
	 viewBox="0 0 403 93" xml:space="preserve">
<g>
	<circle fill="#1C4B9E" cx="93.76" cy="49.505" r="21.806"/>
	<circle fill="#1C4B9E" cx="99.901" cy="32.37" r="15.667"/>
	<circle fill="#1C4B9E" cx="119.049" cy="32.369" r="21.805"/>
	<path fill="#1C4B9E" d="M152.525,70.832c-1.532,0.313-3.12,0.477-4.745,0.477c-13.004,0-23.547-10.541-23.547-23.546
		s10.542-23.548,23.547-23.548c13.005,0,23.546,10.542,23.546,23.548C171.327,59.141,163.256,68.637,152.525,70.832"/>
	<rect x="93.76" y="40.76" fill="#1C4B9E" width="54.507" height="30.549"/>
</g>
<g>
	<path fill="#1C4B9E" d="M188.343,46.356V24.43h2.692v5.226c0.753-1.539,1.747-2.814,2.979-3.829s2.569-1.521,4.008-1.521
		c0.245,0,0.482,0,0.709,0c0.226,0,0.408,0.014,0.544,0.04v2.57c-1.931,0.055-3.614,0.587-5.045,1.596
		c-1.432,1.009-2.442,2.399-3.031,4.17v13.674H188.343z"/>
	<path fill="#1C4B9E" d="M203.099,19.847v-4.214h2.856v4.214H203.099z M203.099,46.356V24.43h2.856v21.926H203.099z"/>
	<path fill="#1C4B9E" d="M209.572,46.356l8.363-10.892l-8.363-11.034h3.063l6.574,8.59l0.329,0.638l0.37-0.638l6.535-8.59h3.063
		l-8.365,11.034l8.365,10.892h-3.063l-6.535-8.548l-0.37-0.576l-0.329,0.576l-6.534,8.548H209.572z"/>
	<path fill="#1C4B9E" d="M231.91,31.227c0-1.797,0.314-3.587,0.945-5.369c0.63-1.783,1.548-3.376,2.753-4.783
		c1.206-1.406,2.692-2.551,4.46-3.436c1.768-0.883,3.773-1.327,6.021-1.327c2.672,0,4.945,0.603,6.822,1.806s3.281,2.77,4.213,4.698
		l-2.363,1.45c-0.48-0.994-1.055-1.829-1.727-2.506c-0.672-0.676-1.4-1.228-2.188-1.656c-0.789-0.428-1.604-0.731-2.445-0.912
		c-0.844-0.18-1.67-0.269-2.477-0.269c-1.795,0-3.379,0.364-4.758,1.094c-1.377,0.729-2.535,1.686-3.474,2.869
		c-0.938,1.183-1.646,2.515-2.127,3.994c-0.479,1.48-0.719,2.982-0.719,4.51c0,1.662,0.288,3.252,0.864,4.768
		c0.573,1.516,1.363,2.858,2.361,4.026c1,1.166,2.182,2.095,3.545,2.779c1.363,0.687,2.84,1.031,4.43,1.031
		c0.836,0,1.699-0.102,2.59-0.31c0.891-0.206,1.75-0.542,2.578-1.009c0.828-0.465,1.592-1.042,2.291-1.729
		c0.697-0.687,1.287-1.524,1.768-2.512l2.445,1.256c-0.479,1.117-1.154,2.104-2.025,2.956c-0.869,0.854-1.842,1.573-2.906,2.159
		c-1.07,0.586-2.201,1.032-3.391,1.34c-1.191,0.306-2.363,0.458-3.516,0.458c-2.057,0-3.934-0.447-5.641-1.344
		c-1.709-0.896-3.18-2.066-4.419-3.511s-2.202-3.083-2.888-4.916C232.252,34.998,231.91,33.129,231.91,31.227z"/>
	<path fill="#1C4B9E" d="M262.264,42.349V15.633h2.855v25.75c0,0.809,0.223,1.446,0.668,1.911c0.445,0.466,1.08,0.699,1.902,0.699
		c0.314,0,0.68-0.04,1.098-0.123c0.418-0.082,0.805-0.191,1.162-0.329l0.514,2.301c-0.535,0.22-1.189,0.4-1.963,0.544
		c-0.775,0.144-1.441,0.217-2.004,0.217c-1.314,0-2.35-0.371-3.104-1.11C262.641,44.752,262.264,43.706,262.264,42.349z"/>
	<path fill="#1C4B9E" d="M271.758,35.464c0-1.547,0.273-3.01,0.822-4.386c0.547-1.376,1.303-2.583,2.27-3.617
		c0.967-1.034,2.117-1.86,3.453-2.476c1.338-0.617,2.785-0.925,4.346-0.925c1.572,0,3.027,0.309,4.359,0.925
		c1.336,0.616,2.484,1.442,3.449,2.476c0.963,1.035,1.719,2.241,2.268,3.617c0.545,1.376,0.82,2.839,0.82,4.386
		c0,1.521-0.275,2.967-0.82,4.336c-0.549,1.371-1.305,2.573-2.268,3.605c-0.965,1.036-2.113,1.852-3.449,2.458
		c-1.332,0.602-2.787,0.903-4.359,0.903c-1.602,0-3.068-0.301-4.396-0.903c-1.33-0.605-2.477-1.422-3.443-2.458
		c-0.967-1.035-1.715-2.24-2.25-3.617C272.025,38.414,271.758,36.972,271.758,35.464z M274.695,35.506
		c0,1.233,0.205,2.374,0.617,3.422c0.41,1.048,0.973,1.973,1.686,2.774c0.711,0.801,1.551,1.429,2.518,1.881
		c0.965,0.451,1.996,0.678,3.092,0.678s2.127-0.234,3.092-0.698c0.965-0.466,1.814-1.1,2.549-1.901
		c0.732-0.801,1.309-1.735,1.725-2.797c0.42-1.062,0.629-2.209,0.629-3.442c0-1.206-0.209-2.348-0.629-3.431
		c-0.416-1.083-0.992-2.025-1.725-2.827c-0.734-0.801-1.576-1.435-2.527-1.9c-0.953-0.466-1.979-0.699-3.074-0.699
		c-1.098,0-2.129,0.233-3.092,0.699c-0.967,0.465-1.809,1.106-2.518,1.921c-0.713,0.815-1.281,1.765-1.703,2.847
		C274.908,33.113,274.695,34.272,274.695,35.506z"/>
	<path fill="#1C4B9E" d="M298,37.314V24.43h2.855V36.8c0,4.959,1.695,7.445,5.086,7.46c0.838,0,1.666-0.139,2.49-0.421
		c0.822-0.279,1.578-0.686,2.264-1.22c0.688-0.532,1.303-1.165,1.854-1.897c0.549-0.731,0.986-1.552,1.316-2.47V24.43h2.855v18.248
		c0,0.781,0.357,1.171,1.07,1.171v2.507c-0.57,0.083-0.977,0.124-1.215,0.124c-0.637,0-1.184-0.194-1.639-0.584
		c-0.453-0.387-0.68-0.876-0.68-1.465l-0.063-3.029c-0.979,1.706-2.283,3.028-3.904,3.965c-1.621,0.933-3.393,1.404-5.316,1.404
		c-2.297,0-4.035-0.792-5.209-2.374C298.592,42.812,298,40.452,298,37.314z"/>
	<path fill="#1C4B9E" d="M321.775,35.476c0-1.549,0.256-3.02,0.762-4.413c0.508-1.39,1.203-2.604,2.086-3.64
		c0.883-1.036,1.936-1.854,3.154-2.459c1.221-0.603,2.555-0.905,4.008-0.905c1.848,0,3.488,0.483,4.922,1.45
		c1.432,0.967,2.572,2.135,3.42,3.505V15.633h2.855v27.045c0,0.781,0.338,1.171,1.008,1.171v2.506
		c-0.48,0.083-0.857,0.125-1.129,0.125c-0.701,0-1.275-0.2-1.729-0.603c-0.453-0.402-0.678-0.885-0.678-1.444V42.12
		c-0.904,1.42-2.088,2.548-3.557,3.387c-1.465,0.84-3,1.26-4.604,1.26c-1.518,0-2.926-0.313-4.213-0.942
		c-1.287-0.632-2.4-1.461-3.338-2.497c-0.939-1.032-1.67-2.23-2.189-3.593C322.037,38.375,321.775,36.955,321.775,35.476z
		 M324.717,35.476c0,1.178,0.211,2.296,0.637,3.356c0.426,1.06,1.002,1.992,1.727,2.792c0.725,0.801,1.59,1.442,2.588,1.919
		c1.002,0.479,2.076,0.718,3.229,0.718c0.727,0,1.49-0.141,2.291-0.421c0.801-0.279,1.545-0.667,2.23-1.159
		c0.684-0.494,1.281-1.069,1.787-1.727c0.506-0.658,0.816-1.369,0.926-2.135v-6.76c-0.275-0.754-0.688-1.462-1.244-2.129
		c-0.555-0.666-1.176-1.251-1.859-1.76c-0.684-0.506-1.412-0.9-2.189-1.182c-0.773-0.282-1.537-0.422-2.289-0.422
		c-1.18,0-2.25,0.254-3.215,0.761c-0.969,0.508-1.785,1.177-2.459,2.006c-0.67,0.83-1.197,1.78-1.582,2.85
		C324.908,33.254,324.717,34.352,324.717,35.476z"/>
</g>
<g>
	<path fill="#1C4B9E" d="M211.688,71.309V57.282h1.379v12.801h8.104v1.226H211.688z"/>
	<path fill="#1C4B9E" d="M223.013,58.864v-1.978h1.342v1.978H223.013z M223.013,71.309V61.016h1.342v10.293H223.013z"/>
	<path fill="#1C4B9E" d="M226.361,63.292v-1.07h1.428v-1.488c0-1.27,0.27-2.263,0.81-2.981c0.54-0.718,1.283-1.077,2.229-1.077
		c0.393,0,0.78,0.06,1.162,0.18c0.383,0.12,0.713,0.28,0.989,0.481l-0.415,0.969c-0.187-0.147-0.413-0.26-0.68-0.337
		c-0.268-0.077-0.532-0.116-0.796-0.116c-0.631,0-1.114,0.244-1.452,0.733c-0.338,0.488-0.506,1.192-0.506,2.112v1.524h2.846v1.07
		h-2.846v8.017h-1.341v-8.017H226.361z"/>
	<path fill="#1C4B9E" d="M233.373,66.143c0-0.729,0.129-1.412,0.387-2.05c0.257-0.639,0.615-1.198,1.075-1.679
		s1.003-0.862,1.63-1.146c0.627-0.283,1.313-0.426,2.06-0.426c0.753,0,1.442,0.143,2.07,0.426c0.627,0.284,1.164,0.669,1.611,1.156
		c0.445,0.487,0.795,1.048,1.045,1.684c0.252,0.635,0.377,1.308,0.377,2.017c0,0.101-0.004,0.203-0.01,0.31
		s-0.016,0.179-0.029,0.216h-8.797c0.038,0.556,0.167,1.068,0.386,1.536c0.218,0.469,0.496,0.876,0.834,1.222
		s0.727,0.614,1.167,0.805c0.44,0.191,0.912,0.286,1.414,0.286c0.341,0,0.675-0.047,1.003-0.141s0.63-0.22,0.907-0.378
		c0.275-0.158,0.523-0.354,0.742-0.586c0.219-0.233,0.387-0.488,0.502-0.767l1.168,0.32c-0.162,0.378-0.387,0.722-0.676,1.032
		s-0.625,0.581-1.004,0.812s-0.801,0.406-1.264,0.528c-0.463,0.121-0.938,0.183-1.428,0.183c-0.752,0-1.443-0.142-2.074-0.424
		c-0.63-0.282-1.175-0.669-1.635-1.159s-0.818-1.059-1.075-1.703C233.502,67.571,233.373,66.881,233.373,66.143z M234.753,65.646
		h7.592c-0.039-0.554-0.166-1.057-0.385-1.51c-0.219-0.454-0.498-0.846-0.836-1.177c-0.336-0.332-0.729-0.589-1.177-0.772
		c-0.446-0.183-0.921-0.274-1.423-0.274c-0.501,0-0.976,0.092-1.423,0.274c-0.446,0.184-0.837,0.44-1.172,0.772
		c-0.334,0.331-0.604,0.727-0.811,1.187C234.914,64.605,234.792,65.105,234.753,65.646z"/>
	<path fill="#1C4B9E" d="M251.027,71.309V57.282h6.742c0.489,0,0.93,0.105,1.322,0.314c0.392,0.21,0.727,0.484,1.003,0.822
		c0.276,0.339,0.49,0.723,0.642,1.151c0.15,0.43,0.227,0.863,0.227,1.302c0,0.711-0.177,1.357-0.53,1.938s-0.846,1.018-1.476,1.313
		c0.804,0.237,1.438,0.677,1.904,1.317c0.467,0.642,0.699,1.389,0.699,2.241c0,0.529-0.105,1.015-0.318,1.456
		c-0.212,0.441-0.495,0.825-0.849,1.151c-0.354,0.325-0.769,0.577-1.244,0.755c-0.477,0.177-0.984,0.266-1.524,0.266H251.027z
		 M252.406,63.659h4.808c0.34,0,0.659-0.072,0.958-0.217c0.299-0.144,0.556-0.333,0.771-0.566c0.216-0.234,0.383-0.507,0.501-0.817
		c0.119-0.311,0.179-0.636,0.179-0.976c0-0.353-0.057-0.686-0.169-0.999c-0.112-0.314-0.27-0.586-0.472-0.817
		c-0.202-0.23-0.445-0.415-0.728-0.553s-0.588-0.206-0.915-0.206h-4.933V63.659z M252.406,70.083h5.222
		c0.354,0,0.689-0.071,1.007-0.216c0.318-0.145,0.59-0.338,0.814-0.581c0.225-0.244,0.403-0.525,0.535-0.846
		c0.131-0.321,0.197-0.65,0.197-0.99s-0.06-0.672-0.179-0.995c-0.118-0.323-0.287-0.607-0.506-0.851
		c-0.218-0.243-0.475-0.44-0.771-0.591c-0.295-0.15-0.613-0.227-0.954-0.227h-5.366V70.083z"/>
	<path fill="#1C4B9E" d="M263.22,66.143c0-0.729,0.129-1.412,0.386-2.05c0.258-0.639,0.616-1.198,1.076-1.679
		s1.003-0.862,1.63-1.146c0.627-0.283,1.313-0.426,2.06-0.426c0.753,0,1.442,0.143,2.069,0.426c0.627,0.284,1.164,0.669,1.611,1.156
		c0.446,0.487,0.796,1.048,1.046,1.684c0.251,0.635,0.377,1.308,0.377,2.017c0,0.101-0.004,0.203-0.01,0.31
		c-0.007,0.106-0.017,0.179-0.029,0.216h-8.798c0.039,0.556,0.167,1.068,0.386,1.536c0.219,0.469,0.497,0.876,0.835,1.222
		s0.727,0.614,1.167,0.805c0.44,0.191,0.912,0.286,1.413,0.286c0.341,0,0.676-0.047,1.004-0.141c0.327-0.094,0.63-0.22,0.906-0.378
		s0.524-0.354,0.743-0.586c0.219-0.233,0.386-0.488,0.501-0.767l1.168,0.32c-0.161,0.378-0.386,0.722-0.676,1.032
		c-0.289,0.311-0.624,0.581-1.003,0.812c-0.38,0.23-0.801,0.406-1.264,0.528c-0.463,0.121-0.939,0.183-1.428,0.183
		c-0.753,0-1.444-0.142-2.074-0.424s-1.175-0.669-1.635-1.159s-0.818-1.059-1.076-1.703C263.349,67.571,263.22,66.881,263.22,66.143
		z M264.6,65.646h7.592c-0.039-0.554-0.167-1.057-0.386-1.51c-0.219-0.454-0.497-0.846-0.835-1.177
		c-0.337-0.332-0.729-0.589-1.177-0.772c-0.447-0.183-0.921-0.274-1.423-0.274s-0.976,0.092-1.423,0.274
		c-0.447,0.184-0.838,0.44-1.172,0.772c-0.335,0.331-0.604,0.727-0.811,1.187C264.76,64.605,264.638,65.105,264.6,65.646z"/>
	<path fill="#1C4B9E" d="M274.439,62.087v-1.071h1.428v-3.473h1.341v3.473h2.373v1.071h-2.373v7.01
		c0.025,0.381,0.157,0.659,0.396,0.837c0.237,0.177,0.521,0.266,0.849,0.266c0.38,0,0.714-0.063,1.003-0.188
		c0.29-0.126,0.477-0.215,0.56-0.266l0.357,1.081c-0.077,0.038-0.193,0.089-0.348,0.152c-0.154,0.063-0.329,0.128-0.525,0.194
		s-0.42,0.125-0.671,0.176s-0.515,0.076-0.791,0.076c-0.289,0-0.565-0.039-0.829-0.116s-0.494-0.198-0.689-0.361
		c-0.196-0.164-0.354-0.372-0.474-0.623c-0.118-0.25-0.178-0.543-0.178-0.877v-7.36H274.439z"/>
	<path fill="#1C4B9E" d="M280.971,62.087v-1.071h1.428v-3.473h1.341v3.473h2.373v1.071h-2.373v7.01
		c0.025,0.381,0.157,0.659,0.396,0.837c0.237,0.177,0.521,0.266,0.849,0.266c0.38,0,0.714-0.063,1.003-0.188
		c0.29-0.126,0.477-0.215,0.56-0.266l0.357,1.081c-0.077,0.038-0.193,0.089-0.348,0.152c-0.154,0.063-0.329,0.128-0.525,0.194
		s-0.42,0.125-0.671,0.176s-0.515,0.076-0.791,0.076c-0.289,0-0.565-0.039-0.829-0.116s-0.494-0.198-0.689-0.361
		c-0.196-0.164-0.354-0.372-0.474-0.623c-0.118-0.25-0.178-0.543-0.178-0.877v-7.36H280.971z"/>
	<path fill="#1C4B9E" d="M287.8,66.143c0-0.729,0.129-1.412,0.386-2.05c0.258-0.639,0.616-1.198,1.076-1.679s1.003-0.862,1.63-1.146
		c0.627-0.283,1.313-0.426,2.06-0.426c0.753,0,1.442,0.143,2.069,0.426c0.627,0.284,1.164,0.669,1.611,1.156
		c0.446,0.487,0.796,1.048,1.046,1.684c0.251,0.635,0.377,1.308,0.377,2.017c0,0.101-0.004,0.203-0.01,0.31
		c-0.007,0.106-0.017,0.179-0.029,0.216h-8.798c0.039,0.556,0.167,1.068,0.386,1.536c0.219,0.469,0.497,0.876,0.835,1.222
		s0.727,0.614,1.167,0.805c0.44,0.191,0.912,0.286,1.413,0.286c0.341,0,0.676-0.047,1.004-0.141c0.327-0.094,0.63-0.22,0.906-0.378
		s0.524-0.354,0.743-0.586c0.219-0.233,0.386-0.488,0.501-0.767l1.168,0.32c-0.161,0.378-0.386,0.722-0.676,1.032
		c-0.289,0.311-0.624,0.581-1.003,0.812c-0.38,0.23-0.801,0.406-1.264,0.528c-0.463,0.121-0.939,0.183-1.428,0.183
		c-0.753,0-1.444-0.142-2.074-0.424s-1.175-0.669-1.635-1.159s-0.818-1.059-1.076-1.703C287.929,67.571,287.8,66.881,287.8,66.143z
		 M289.18,65.646h7.592c-0.039-0.554-0.167-1.057-0.386-1.51c-0.219-0.454-0.497-0.846-0.835-1.177
		c-0.337-0.332-0.729-0.589-1.177-0.772c-0.447-0.183-0.921-0.274-1.423-0.274s-0.976,0.092-1.423,0.274
		c-0.447,0.184-0.838,0.44-1.172,0.772c-0.335,0.331-0.604,0.727-0.811,1.187C289.34,64.605,289.218,65.105,289.18,65.646z"/>
	<path fill="#1C4B9E" d="M300.07,71.309V61.016h1.264v2.453c0.354-0.722,0.819-1.321,1.398-1.797s1.206-0.714,1.881-0.714
		c0.116,0,0.227,0,0.333,0s0.191,0.006,0.256,0.019v1.206c-0.907,0.026-1.696,0.276-2.368,0.75s-1.146,1.126-1.423,1.957v6.419
		H300.07z"/>
</g>
</svg>
